<?xml version="1.0" encoding="UTF-8" standalone="no"?>
<!-- Created with Inkscape (http://www.inkscape.org/) -->

<svg
   xmlns:dc="http://purl.org/dc/elements/1.1/"
   xmlns:cc="http://creativecommons.org/ns#"
   xmlns:rdf="http://www.w3.org/1999/02/22-rdf-syntax-ns#"
   xmlns:svg="http://www.w3.org/2000/svg"
   xmlns="http://www.w3.org/2000/svg"
   xmlns:sodipodi="http://sodipodi.sourceforge.net/DTD/sodipodi-0.dtd"
   xmlns:inkscape="http://www.inkscape.org/namespaces/inkscape"
   width="436.5625mm"
   height="23.8125mm"
   viewBox="0 0 436.5625 23.8125"
   version="1.1"
   id="svg8"
   inkscape:version="0.92pre1 r"
   sodipodi:docname="spriteLoading.svg">
  <defs
     id="defs2">
    <clipPath
       clipPathUnits="userSpaceOnUse"
       id="clipPath4619">
      <rect
         style="opacity:1;fill:#ececec;fill-opacity:1;stroke:none;stroke-width:1.10356116;stroke-miterlimit:4;stroke-dasharray:none"
         id="rect4621"
         width="39.6875"
         height="23.651327"
         x="-62.362911"
         y="90.705582" />
    </clipPath>
    <clipPath
       clipPathUnits="userSpaceOnUse"
       id="clipPath4625">
      <rect
         y="90.705582"
         x="-56.963829"
         height="23.651327"
         width="39.6875"
         id="rect4627"
         style="opacity:1;fill:#ececec;fill-opacity:1;stroke:none;stroke-width:1.10356116;stroke-miterlimit:4;stroke-dasharray:none" />
    </clipPath>
    <clipPath
       clipPathUnits="userSpaceOnUse"
       id="clipPath4631">
      <rect
         style="opacity:1;fill:#ececec;fill-opacity:1;stroke:none;stroke-width:1.10356116;stroke-miterlimit:4;stroke-dasharray:none"
         id="rect4633"
         width="39.6875"
         height="23.651327"
         x="-52.152981"
         y="90.705582" />
    </clipPath>
    <clipPath
       clipPathUnits="userSpaceOnUse"
       id="clipPath4637">
      <rect
         y="90.705582"
         x="-103.46872"
         height="23.651327"
         width="39.6875"
         id="rect4639"
         style="opacity:1;fill:#ececec;fill-opacity:1;stroke:none;stroke-width:1.10356116;stroke-miterlimit:4;stroke-dasharray:none" />
    </clipPath>
    <clipPath
       clipPathUnits="userSpaceOnUse"
       id="clipPath4643">
      <rect
         style="opacity:1;fill:#ececec;fill-opacity:1;stroke:none;stroke-width:1.10356116;stroke-miterlimit:4;stroke-dasharray:none"
         id="rect4645"
         width="39.6875"
         height="23.651327"
         x="-95.001999"
         y="90.705582" />
    </clipPath>
  </defs>
  <sodipodi:namedview
     id="base"
     pagecolor="#ffffff"
     bordercolor="#666666"
     borderopacity="1.0"
     inkscape:pageopacity="0.0"
     inkscape:pageshadow="2"
     inkscape:zoom="0.98994949"
     inkscape:cx="1402.7774"
     inkscape:cy="-20.588229"
     inkscape:document-units="mm"
     inkscape:current-layer="layer1"
     showgrid="false"
     inkscape:window-width="1360"
     inkscape:window-height="688"
     inkscape:window-x="0"
     inkscape:window-y="28"
     inkscape:window-maximized="1"
     fit-margin-top="0"
     fit-margin-left="0"
     fit-margin-right="0"
     fit-margin-bottom="0" />
  <metadata
     id="metadata5">
    <rdf:RDF>
      <cc:Work
         rdf:about="">
        <dc:format>image/svg+xml</dc:format>
        <dc:type
           rdf:resource="http://purl.org/dc/dcmitype/StillImage" />
        <dc:title></dc:title>
      </cc:Work>
    </rdf:RDF>
  </metadata>
  <g
     inkscape:label="Capa 1"
     inkscape:groupmode="layer"
     id="layer1"
     transform="translate(77.863091,-90.544418)">
    <ellipse
       style="opacity:1;fill:#f0c419;fill-opacity:1;stroke:none;stroke-width:1.36600423;stroke-linecap:round;stroke-miterlimit:4;stroke-dasharray:none"
       id="path4365"
       cx="-61.357189"
       cy="99.472969"
       rx="5.9133382"
       ry="5.9536343" />
    <g
       id="g4398"
       transform="matrix(1,0,0,1.0068145,-0.05224122,-0.77928028)">
      <path
         id="path4270"
         d="m -47.392938,101.52475 h -0.02857 c 0.01235,0.10724 0.02081,0.21554 0.02081,0.3263 0,0.19508 -0.157683,0.35276 -0.352759,0.35276 -0.195075,0 -0.352758,-0.15768 -0.352758,-0.35276 0,-1.16728 -0.949274,-2.116551 -2.116552,-2.116551 -1.167278,0 -2.116551,0.949271 -2.116551,2.116551 0,0.19508 -0.157683,0.35276 -0.352758,0.35276 -0.195076,0 -0.352759,-0.15768 -0.352759,-0.35276 0,-1.43361 1.075561,-2.618531 2.461549,-2.796321 -0.07972,-1.777546 -1.546493,-3.200574 -3.343445,-3.200574 -1.802949,0 -3.273952,1.4322 -3.344504,3.218214 0.292437,0.0691 0.575702,0.18344 0.83886,0.34606 0.64061,0.39685 1.088613,1.019471 1.261465,1.753211 0.04445,0.18978 -0.07302,0.37957 -0.262453,0.42437 -0.189784,0.0427 -0.379568,-0.073 -0.424368,-0.26246 -0.267391,-1.13658 -1.410681,-1.843511 -2.5448,-1.575771 -1.136235,0.267391 -1.843163,1.408921 -1.575772,2.545151 0.04445,0.18944 -0.07302,0.37922 -0.262806,0.42402 -0.02681,0.006 -0.05397,0.009 -0.08078,0.009 -0.1598,0 -0.304784,-0.10971 -0.343234,-0.27197 -0.103711,-0.44131 -0.09454,-0.88261 0.0042,-1.29604 -0.725977,-0.10618 -1.459362,0.16791 -1.937703,0.74855 -0.44377,0.53937 -0.573232,1.23395 -0.414491,1.86433 3.53e-4,0.004 0.0025,0.008 0.0028,0.012 0.107944,0.41837 0.342176,0.80781 0.700226,1.10307 0.150275,0.12417 0.171793,0.34606 0.04833,0.49669 -0.06985,0.0847 -0.170735,0.1284 -0.272683,0.1284 -0.07902,0 -0.158035,-0.0261 -0.224001,-0.0804 -0.429307,-0.35346 -0.73656,-0.81522 -0.898124,-1.33378 -1.426202,-0.37181 -2.925779,0.22824 -3.700436,1.50346 -0.464583,0.76478 -0.603923,1.66502 -0.391562,2.53457 0.21236,0.8699 0.750317,1.6047 1.51545,2.06963 0.166502,0.10124 0.219416,0.31784 0.118174,0.48469 -0.06632,0.10936 -0.182729,0.16933 -0.301608,0.16933 -0.04692,0 -0.09348,-0.0127 -0.138282,-0.0321 0.557359,0.33018 1.199027,0.53231 1.885142,0.56194 l 2.895795,0.001 c 1.872089,-0.03 3.475729,-1.18527 4.159375,-2.81925 0.692465,1.6555 2.329265,2.82207 4.233103,2.82207 3.306758,0 5.996894,-2.69014 5.996894,-5.99689 v -3.52759 z"
         style="fill:#d0e8f9;stroke-width:0.35275853"
         inkscape:connector-curvature="0" />
      <g
         transform="matrix(0.35275852,0,0,0.35275852,-68.551041,91.999563)"
         id="g4274">
        <path
           id="path4272"
           d="M 52.936,20.068 C 52.705,13.929 47.652,9.002 41.458,9.002 c -6.142,0 -11.16,4.844 -11.47,10.91 -0.558,0.012 -1.119,0.078 -1.676,0.209 -2.336,0.55 -4.185,2.082 -5.229,4.052 -2.882,-0.585 -5.848,0.433 -7.75,2.742 -1.251,1.52 -1.879,3.408 -1.81,5.359 -4.63,-0.834 -9.34,1.224 -11.844,5.344 -1.596,2.625 -2.073,5.714 -1.345,8.698 0.728,2.984 2.575,5.506 5.2,7.102 0.162,0.099 0.342,0.146 0.519,0.146 0.338,0 0.667,-0.171 0.855,-0.48 C 7.195,52.611 7.045,51.997 6.573,51.71 4.404,50.392 2.879,48.309 2.277,45.843 1.675,43.378 2.07,40.826 3.387,38.658 c 2.196,-3.614 6.447,-5.315 10.49,-4.262 0.458,1.471 1.33,2.779 2.546,3.781 0.187,0.153 0.411,0.228 0.635,0.228 0.289,0 0.575,-0.124 0.773,-0.364 0.351,-0.427 0.289,-1.057 -0.137,-1.408 -1.016,-0.836 -1.679,-1.941 -1.985,-3.127 -10e-4,-0.012 -0.007,-0.022 -0.008,-0.034 -0.45,-1.787 -0.083,-3.756 1.175,-5.285 1.356,-1.646 3.435,-2.423 5.493,-2.122 -0.28,1.173 -0.307,2.423 -0.012,3.674 0.108,0.461 0.52,0.771 0.973,0.771 0.076,0 0.153,-0.009 0.229,-0.026 0.538,-0.127 0.871,-0.665 0.745,-1.202 -0.758,-3.221 1.246,-6.457 4.467,-7.215 3.215,-0.759 6.456,1.245 7.214,4.467 0.127,0.537 0.665,0.865 1.203,0.744 0.537,-0.127 0.87,-0.665 0.744,-1.203 -0.49,-2.08 -1.76,-3.845 -3.576,-4.97 -0.746,-0.462 -1.549,-0.785 -2.378,-0.981 0.2,-5.063 4.37,-9.123 9.481,-9.123 5.094,0 9.253,4.033 9.478,9.073 -3.929,0.504 -6.978,3.863 -6.978,7.927 0,0.553 0.447,1 1,1 0.553,0 1,-0.447 1,-1 0,-3.309 2.691,-6 6,-6 3.309,0 6.046,2.691 6.046,6 0,0.028 0,1.327 0,3 0,0.552 0.448,1 1,1 0.552,0 1,-0.448 1,-1 v -3 c -0.002,-4.079 -3.119,-7.449 -7.069,-7.933 z"
           style="fill:#abcadd"
           inkscape:connector-curvature="0" />
      </g>
      <g
         transform="matrix(0.35275852,0,0,0.35275852,-68.551041,91.999563)"
         id="g4278">
        <path
           id="path4276"
           d="m 43.003,55.002 c -4.973,0 -9.491,-2.608 -12,-6.789 -2.509,4.181 -7.027,6.789 -12,6.789 -0.552,0 -1,-0.447 -1,-1 0,-0.553 0.448,-1 1,-1 4.853,0 9.201,-2.899 11.078,-7.386 l 0.922,-2.206 0.922,2.206 c 1.876,4.486 6.225,7.386 11.078,7.386 0.552,0 1,0.447 1,1 0,0.553 -0.447,1 -1,1 z"
           style="fill:#abcadd"
           inkscape:connector-curvature="0" />
      </g>
      <path
         id="path4280"
         d="m -49.184245,106.41892 c -0.161564,-1.40362 -1.355651,-2.49823 -2.801961,-2.49823 -1.556018,0 -2.822069,1.26605 -2.822069,2.82206 0,0.19473 0.158036,0.35276 0.352759,0.35276 0.194723,0 0.352758,-0.15803 0.352758,-0.35276 0,-1.16727 0.949274,-2.11655 2.116552,-2.11655 1.059333,0 1.936644,0.78277 2.090094,1.79978 -0.986666,0.17955 -1.737336,1.0431 -1.737336,2.08057 0,0.19472 0.158036,0.35275 0.352759,0.35275 0.194722,0 0.352758,-0.15803 0.352758,-0.35275 0,-0.77819 0.632849,-1.41104 1.411034,-1.41104 0.778186,0 1.411034,0.63285 1.411034,1.41104 0,0.19472 0.158036,0.35275 0.352759,0.35275 0.194723,0 0.352758,-0.15803 0.352758,-0.35275 0,-1.05334 -0.774657,-1.92712 -1.783899,-2.08763 z"
         style="fill:#abcadd;stroke-width:0.35275853"
         inkscape:connector-curvature="0" />
    </g>
    <g
       id="g4282"
       transform="matrix(0.35275852,0,0,0.35275852,-68.551041,93.082984)" />
    <g
       id="g4284"
       transform="matrix(0.35275852,0,0,0.35275852,-68.551041,93.082984)" />
    <g
       id="g4286"
       transform="matrix(0.35275852,0,0,0.35275852,-68.551041,93.082984)" />
    <g
       id="g4288"
       transform="matrix(0.35275852,0,0,0.35275852,-68.551041,93.082984)" />
    <g
       id="g4290"
       transform="matrix(0.35275852,0,0,0.35275852,-68.551041,93.082984)" />
    <g
       id="g4292"
       transform="matrix(0.35275852,0,0,0.35275852,-68.551041,93.082984)" />
    <g
       id="g4294"
       transform="matrix(0.35275852,0,0,0.35275852,-68.551041,93.082984)" />
    <g
       id="g4296"
       transform="matrix(0.35275852,0,0,0.35275852,-68.551041,93.082984)" />
    <g
       id="g4298"
       transform="matrix(0.35275852,0,0,0.35275852,-68.551041,93.082984)" />
    <g
       id="g4300"
       transform="matrix(0.35275852,0,0,0.35275852,-68.551041,93.082984)" />
    <g
       id="g4302"
       transform="matrix(0.35275852,0,0,0.35275852,-68.551041,93.082984)" />
    <g
       id="g4304"
       transform="matrix(0.35275852,0,0,0.35275852,-68.551041,93.082984)" />
    <g
       id="g4306"
       transform="matrix(0.35275852,0,0,0.35275852,-68.551041,93.082984)" />
    <g
       id="g4308"
       transform="matrix(0.35275852,0,0,0.35275852,-68.551041,93.082984)" />
    <g
       id="g4310"
       transform="matrix(0.35275852,0,0,0.35275852,-68.551041,93.082984)" />
    <ellipse
       cy="99.472969"
       cx="-21.669689"
       id="circle4420"
       style="opacity:1;fill:#f0c419;fill-opacity:1;stroke:none;stroke-width:1.36600423;stroke-linecap:round;stroke-miterlimit:4;stroke-dasharray:none"
       rx="5.9133382"
       ry="5.9536343" />
    <g
       transform="matrix(1,0,0,1.0068145,35.401923,-0.77928028)"
       id="g4434">
      <path
         inkscape:connector-curvature="0"
         style="fill:#d0e8f9;stroke-width:0.35275853"
         d="m -47.392938,101.52475 h -0.02857 c 0.01235,0.10724 0.02081,0.21554 0.02081,0.3263 0,0.19508 -0.157683,0.35276 -0.352759,0.35276 -0.195075,0 -0.352758,-0.15768 -0.352758,-0.35276 0,-1.16728 -0.949274,-2.116551 -2.116552,-2.116551 -1.167278,0 -2.116551,0.949271 -2.116551,2.116551 0,0.19508 -0.157683,0.35276 -0.352758,0.35276 -0.195076,0 -0.352759,-0.15768 -0.352759,-0.35276 0,-1.43361 1.075561,-2.618531 2.461549,-2.796321 -0.07972,-1.777546 -1.546493,-3.200574 -3.343445,-3.200574 -1.802949,0 -3.273952,1.4322 -3.344504,3.218214 0.292437,0.0691 0.575702,0.18344 0.83886,0.34606 0.64061,0.39685 1.088613,1.019471 1.261465,1.753211 0.04445,0.18978 -0.07302,0.37957 -0.262453,0.42437 -0.189784,0.0427 -0.379568,-0.073 -0.424368,-0.26246 -0.267391,-1.13658 -1.410681,-1.843511 -2.5448,-1.575771 -1.136235,0.267391 -1.843163,1.408921 -1.575772,2.545151 0.04445,0.18944 -0.07302,0.37922 -0.262806,0.42402 -0.02681,0.006 -0.05397,0.009 -0.08078,0.009 -0.1598,0 -0.304784,-0.10971 -0.343234,-0.27197 -0.103711,-0.44131 -0.09454,-0.88261 0.0042,-1.29604 -0.725977,-0.10618 -1.459362,0.16791 -1.937703,0.74855 -0.44377,0.53937 -0.573232,1.23395 -0.414491,1.86433 3.53e-4,0.004 0.0025,0.008 0.0028,0.012 0.107944,0.41837 0.342176,0.80781 0.700226,1.10307 0.150275,0.12417 0.171793,0.34606 0.04833,0.49669 -0.06985,0.0847 -0.170735,0.1284 -0.272683,0.1284 -0.07902,0 -0.158035,-0.0261 -0.224001,-0.0804 -0.429307,-0.35346 -0.73656,-0.81522 -0.898124,-1.33378 -1.426202,-0.37181 -2.925779,0.22824 -3.700436,1.50346 -0.464583,0.76478 -0.603923,1.66502 -0.391562,2.53457 0.21236,0.8699 0.750317,1.6047 1.51545,2.06963 0.166502,0.10124 0.219416,0.31784 0.118174,0.48469 -0.06632,0.10936 -0.182729,0.16933 -0.301608,0.16933 -0.04692,0 -0.09348,-0.0127 -0.138282,-0.0321 0.557359,0.33018 1.199027,0.53231 1.885142,0.56194 l 2.895795,0.001 c 1.872089,-0.03 3.475729,-1.18527 4.159375,-2.81925 0.692465,1.6555 2.329265,2.82207 4.233103,2.82207 3.306758,0 5.996894,-2.69014 5.996894,-5.99689 v -3.52759 z"
         id="path4422" />
      <g
         id="g4426"
         transform="matrix(0.35275852,0,0,0.35275852,-68.551041,91.999563)">
        <path
           inkscape:connector-curvature="0"
           style="fill:#abcadd"
           d="M 52.936,20.068 C 52.705,13.929 47.652,9.002 41.458,9.002 c -6.142,0 -11.16,4.844 -11.47,10.91 -0.558,0.012 -1.119,0.078 -1.676,0.209 -2.336,0.55 -4.185,2.082 -5.229,4.052 -2.882,-0.585 -5.848,0.433 -7.75,2.742 -1.251,1.52 -1.879,3.408 -1.81,5.359 -4.63,-0.834 -9.34,1.224 -11.844,5.344 -1.596,2.625 -2.073,5.714 -1.345,8.698 0.728,2.984 2.575,5.506 5.2,7.102 0.162,0.099 0.342,0.146 0.519,0.146 0.338,0 0.667,-0.171 0.855,-0.48 C 7.195,52.611 7.045,51.997 6.573,51.71 4.404,50.392 2.879,48.309 2.277,45.843 1.675,43.378 2.07,40.826 3.387,38.658 c 2.196,-3.614 6.447,-5.315 10.49,-4.262 0.458,1.471 1.33,2.779 2.546,3.781 0.187,0.153 0.411,0.228 0.635,0.228 0.289,0 0.575,-0.124 0.773,-0.364 0.351,-0.427 0.289,-1.057 -0.137,-1.408 -1.016,-0.836 -1.679,-1.941 -1.985,-3.127 -10e-4,-0.012 -0.007,-0.022 -0.008,-0.034 -0.45,-1.787 -0.083,-3.756 1.175,-5.285 1.356,-1.646 3.435,-2.423 5.493,-2.122 -0.28,1.173 -0.307,2.423 -0.012,3.674 0.108,0.461 0.52,0.771 0.973,0.771 0.076,0 0.153,-0.009 0.229,-0.026 0.538,-0.127 0.871,-0.665 0.745,-1.202 -0.758,-3.221 1.246,-6.457 4.467,-7.215 3.215,-0.759 6.456,1.245 7.214,4.467 0.127,0.537 0.665,0.865 1.203,0.744 0.537,-0.127 0.87,-0.665 0.744,-1.203 -0.49,-2.08 -1.76,-3.845 -3.576,-4.97 -0.746,-0.462 -1.549,-0.785 -2.378,-0.981 0.2,-5.063 4.37,-9.123 9.481,-9.123 5.094,0 9.253,4.033 9.478,9.073 -3.929,0.504 -6.978,3.863 -6.978,7.927 0,0.553 0.447,1 1,1 0.553,0 1,-0.447 1,-1 0,-3.309 2.691,-6 6,-6 3.309,0 6.046,2.691 6.046,6 0,0.028 0,1.327 0,3 0,0.552 0.448,1 1,1 0.552,0 1,-0.448 1,-1 v -3 c -0.002,-4.079 -3.119,-7.449 -7.069,-7.933 z"
           id="path4424" />
      </g>
      <g
         id="g4430"
         transform="matrix(0.35275852,0,0,0.35275852,-68.551041,91.999563)">
        <path
           inkscape:connector-curvature="0"
           style="fill:#abcadd"
           d="m 43.003,55.002 c -4.973,0 -9.491,-2.608 -12,-6.789 -2.509,4.181 -7.027,6.789 -12,6.789 -0.552,0 -1,-0.447 -1,-1 0,-0.553 0.448,-1 1,-1 4.853,0 9.201,-2.899 11.078,-7.386 l 0.922,-2.206 0.922,2.206 c 1.876,4.486 6.225,7.386 11.078,7.386 0.552,0 1,0.447 1,1 0,0.553 -0.447,1 -1,1 z"
           id="path4428" />
      </g>
      <path
         inkscape:connector-curvature="0"
         style="fill:#abcadd;stroke-width:0.35275853"
         d="m -49.184245,106.41892 c -0.161564,-1.40362 -1.355651,-2.49823 -2.801961,-2.49823 -1.556018,0 -2.822069,1.26605 -2.822069,2.82206 0,0.19473 0.158036,0.35276 0.352759,0.35276 0.194723,0 0.352758,-0.15803 0.352758,-0.35276 0,-1.16727 0.949274,-2.11655 2.116552,-2.11655 1.059333,0 1.936644,0.78277 2.090094,1.79978 -0.986666,0.17955 -1.737336,1.0431 -1.737336,2.08057 0,0.19472 0.158036,0.35275 0.352759,0.35275 0.194722,0 0.352758,-0.15803 0.352758,-0.35275 0,-0.77819 0.632849,-1.41104 1.411034,-1.41104 0.778186,0 1.411034,0.63285 1.411034,1.41104 0,0.19472 0.158036,0.35275 0.352759,0.35275 0.194723,0 0.352758,-0.15803 0.352758,-0.35275 0,-1.05334 -0.774657,-1.92712 -1.783899,-2.08763 z"
         id="path4432" />
    </g>
    <ellipse
       style="opacity:1;fill:#f0c419;fill-opacity:1;stroke:none;stroke-width:1.36600423;stroke-linecap:round;stroke-miterlimit:4;stroke-dasharray:none"
       id="circle4438"
       cx="18.017811"
       cy="99.472969"
       rx="5.9133382"
       ry="5.9536343" />
    <g
       id="g4452"
       transform="matrix(1,0,0,1.0068145,70.856087,-0.77928028)">
      <path
         id="path4440"
         d="m -47.392938,101.52475 h -0.02857 c 0.01235,0.10724 0.02081,0.21554 0.02081,0.3263 0,0.19508 -0.157683,0.35276 -0.352759,0.35276 -0.195075,0 -0.352758,-0.15768 -0.352758,-0.35276 0,-1.16728 -0.949274,-2.116551 -2.116552,-2.116551 -1.167278,0 -2.116551,0.949271 -2.116551,2.116551 0,0.19508 -0.157683,0.35276 -0.352758,0.35276 -0.195076,0 -0.352759,-0.15768 -0.352759,-0.35276 0,-1.43361 1.075561,-2.618531 2.461549,-2.796321 -0.07972,-1.777546 -1.546493,-3.200574 -3.343445,-3.200574 -1.802949,0 -3.273952,1.4322 -3.344504,3.218214 0.292437,0.0691 0.575702,0.18344 0.83886,0.34606 0.64061,0.39685 1.088613,1.019471 1.261465,1.753211 0.04445,0.18978 -0.07302,0.37957 -0.262453,0.42437 -0.189784,0.0427 -0.379568,-0.073 -0.424368,-0.26246 -0.267391,-1.13658 -1.410681,-1.843511 -2.5448,-1.575771 -1.136235,0.267391 -1.843163,1.408921 -1.575772,2.545151 0.04445,0.18944 -0.07302,0.37922 -0.262806,0.42402 -0.02681,0.006 -0.05397,0.009 -0.08078,0.009 -0.1598,0 -0.304784,-0.10971 -0.343234,-0.27197 -0.103711,-0.44131 -0.09454,-0.88261 0.0042,-1.29604 -0.725977,-0.10618 -1.459362,0.16791 -1.937703,0.74855 -0.44377,0.53937 -0.573232,1.23395 -0.414491,1.86433 3.53e-4,0.004 0.0025,0.008 0.0028,0.012 0.107944,0.41837 0.342176,0.80781 0.700226,1.10307 0.150275,0.12417 0.171793,0.34606 0.04833,0.49669 -0.06985,0.0847 -0.170735,0.1284 -0.272683,0.1284 -0.07902,0 -0.158035,-0.0261 -0.224001,-0.0804 -0.429307,-0.35346 -0.73656,-0.81522 -0.898124,-1.33378 -1.426202,-0.37181 -2.925779,0.22824 -3.700436,1.50346 -0.464583,0.76478 -0.603923,1.66502 -0.391562,2.53457 0.21236,0.8699 0.750317,1.6047 1.51545,2.06963 0.166502,0.10124 0.219416,0.31784 0.118174,0.48469 -0.06632,0.10936 -0.182729,0.16933 -0.301608,0.16933 -0.04692,0 -0.09348,-0.0127 -0.138282,-0.0321 0.557359,0.33018 1.199027,0.53231 1.885142,0.56194 l 2.895795,0.001 c 1.872089,-0.03 3.475729,-1.18527 4.159375,-2.81925 0.692465,1.6555 2.329265,2.82207 4.233103,2.82207 3.306758,0 5.996894,-2.69014 5.996894,-5.99689 v -3.52759 z"
         style="fill:#d0e8f9;stroke-width:0.35275853"
         inkscape:connector-curvature="0" />
      <g
         transform="matrix(0.35275852,0,0,0.35275852,-68.551041,91.999563)"
         id="g4444">
        <path
           id="path4442"
           d="M 52.936,20.068 C 52.705,13.929 47.652,9.002 41.458,9.002 c -6.142,0 -11.16,4.844 -11.47,10.91 -0.558,0.012 -1.119,0.078 -1.676,0.209 -2.336,0.55 -4.185,2.082 -5.229,4.052 -2.882,-0.585 -5.848,0.433 -7.75,2.742 -1.251,1.52 -1.879,3.408 -1.81,5.359 -4.63,-0.834 -9.34,1.224 -11.844,5.344 -1.596,2.625 -2.073,5.714 -1.345,8.698 0.728,2.984 2.575,5.506 5.2,7.102 0.162,0.099 0.342,0.146 0.519,0.146 0.338,0 0.667,-0.171 0.855,-0.48 C 7.195,52.611 7.045,51.997 6.573,51.71 4.404,50.392 2.879,48.309 2.277,45.843 1.675,43.378 2.07,40.826 3.387,38.658 c 2.196,-3.614 6.447,-5.315 10.49,-4.262 0.458,1.471 1.33,2.779 2.546,3.781 0.187,0.153 0.411,0.228 0.635,0.228 0.289,0 0.575,-0.124 0.773,-0.364 0.351,-0.427 0.289,-1.057 -0.137,-1.408 -1.016,-0.836 -1.679,-1.941 -1.985,-3.127 -10e-4,-0.012 -0.007,-0.022 -0.008,-0.034 -0.45,-1.787 -0.083,-3.756 1.175,-5.285 1.356,-1.646 3.435,-2.423 5.493,-2.122 -0.28,1.173 -0.307,2.423 -0.012,3.674 0.108,0.461 0.52,0.771 0.973,0.771 0.076,0 0.153,-0.009 0.229,-0.026 0.538,-0.127 0.871,-0.665 0.745,-1.202 -0.758,-3.221 1.246,-6.457 4.467,-7.215 3.215,-0.759 6.456,1.245 7.214,4.467 0.127,0.537 0.665,0.865 1.203,0.744 0.537,-0.127 0.87,-0.665 0.744,-1.203 -0.49,-2.08 -1.76,-3.845 -3.576,-4.97 -0.746,-0.462 -1.549,-0.785 -2.378,-0.981 0.2,-5.063 4.37,-9.123 9.481,-9.123 5.094,0 9.253,4.033 9.478,9.073 -3.929,0.504 -6.978,3.863 -6.978,7.927 0,0.553 0.447,1 1,1 0.553,0 1,-0.447 1,-1 0,-3.309 2.691,-6 6,-6 3.309,0 6.046,2.691 6.046,6 0,0.028 0,1.327 0,3 0,0.552 0.448,1 1,1 0.552,0 1,-0.448 1,-1 v -3 c -0.002,-4.079 -3.119,-7.449 -7.069,-7.933 z"
           style="fill:#abcadd"
           inkscape:connector-curvature="0" />
      </g>
      <g
         transform="matrix(0.35275852,0,0,0.35275852,-68.551041,91.999563)"
         id="g4448">
        <path
           id="path4446"
           d="m 43.003,55.002 c -4.973,0 -9.491,-2.608 -12,-6.789 -2.509,4.181 -7.027,6.789 -12,6.789 -0.552,0 -1,-0.447 -1,-1 0,-0.553 0.448,-1 1,-1 4.853,0 9.201,-2.899 11.078,-7.386 l 0.922,-2.206 0.922,2.206 c 1.876,4.486 6.225,7.386 11.078,7.386 0.552,0 1,0.447 1,1 0,0.553 -0.447,1 -1,1 z"
           style="fill:#abcadd"
           inkscape:connector-curvature="0" />
      </g>
      <path
         id="path4450"
         d="m -49.184245,106.41892 c -0.161564,-1.40362 -1.355651,-2.49823 -2.801961,-2.49823 -1.556018,0 -2.822069,1.26605 -2.822069,2.82206 0,0.19473 0.158036,0.35276 0.352759,0.35276 0.194723,0 0.352758,-0.15803 0.352758,-0.35276 0,-1.16727 0.949274,-2.11655 2.116552,-2.11655 1.059333,0 1.936644,0.78277 2.090094,1.79978 -0.986666,0.17955 -1.737336,1.0431 -1.737336,2.08057 0,0.19472 0.158036,0.35275 0.352759,0.35275 0.194722,0 0.352758,-0.15803 0.352758,-0.35275 0,-0.77819 0.632849,-1.41104 1.411034,-1.41104 0.778186,0 1.411034,0.63285 1.411034,1.41104 0,0.19472 0.158036,0.35275 0.352759,0.35275 0.194723,0 0.352758,-0.15803 0.352758,-0.35275 0,-1.05334 -0.774657,-1.92712 -1.783899,-2.08763 z"
         style="fill:#abcadd;stroke-width:0.35275853"
         inkscape:connector-curvature="0" />
    </g>
    <ellipse
       cy="99.472969"
       cx="57.705311"
       id="circle4456"
       style="opacity:1;fill:#f0c419;fill-opacity:1;stroke:none;stroke-width:1.36600423;stroke-linecap:round;stroke-miterlimit:4;stroke-dasharray:none"
       rx="5.9133382"
       ry="5.9536343" />
    <g
       transform="matrix(1,0,0,1.0068145,103.56232,-0.77928028)"
       id="g4470"
       clip-path="url(#clipPath4619)">
      <path
         inkscape:connector-curvature="0"
         style="fill:#d0e8f9;stroke-width:0.35275853"
         d="m -47.392938,101.52475 h -0.02857 c 0.01235,0.10724 0.02081,0.21554 0.02081,0.3263 0,0.19508 -0.157683,0.35276 -0.352759,0.35276 -0.195075,0 -0.352758,-0.15768 -0.352758,-0.35276 0,-1.16728 -0.949274,-2.116551 -2.116552,-2.116551 -1.167278,0 -2.116551,0.949271 -2.116551,2.116551 0,0.19508 -0.157683,0.35276 -0.352758,0.35276 -0.195076,0 -0.352759,-0.15768 -0.352759,-0.35276 0,-1.43361 1.075561,-2.618531 2.461549,-2.796321 -0.07972,-1.777546 -1.546493,-3.200574 -3.343445,-3.200574 -1.802949,0 -3.273952,1.4322 -3.344504,3.218214 0.292437,0.0691 0.575702,0.18344 0.83886,0.34606 0.64061,0.39685 1.088613,1.019471 1.261465,1.753211 0.04445,0.18978 -0.07302,0.37957 -0.262453,0.42437 -0.189784,0.0427 -0.379568,-0.073 -0.424368,-0.26246 -0.267391,-1.13658 -1.410681,-1.843511 -2.5448,-1.575771 -1.136235,0.267391 -1.843163,1.408921 -1.575772,2.545151 0.04445,0.18944 -0.07302,0.37922 -0.262806,0.42402 -0.02681,0.006 -0.05397,0.009 -0.08078,0.009 -0.1598,0 -0.304784,-0.10971 -0.343234,-0.27197 -0.103711,-0.44131 -0.09454,-0.88261 0.0042,-1.29604 -0.725977,-0.10618 -1.459362,0.16791 -1.937703,0.74855 -0.44377,0.53937 -0.573232,1.23395 -0.414491,1.86433 3.53e-4,0.004 0.0025,0.008 0.0028,0.012 0.107944,0.41837 0.342176,0.80781 0.700226,1.10307 0.150275,0.12417 0.171793,0.34606 0.04833,0.49669 -0.06985,0.0847 -0.170735,0.1284 -0.272683,0.1284 -0.07902,0 -0.158035,-0.0261 -0.224001,-0.0804 -0.429307,-0.35346 -0.73656,-0.81522 -0.898124,-1.33378 -1.426202,-0.37181 -2.925779,0.22824 -3.700436,1.50346 -0.464583,0.76478 -0.603923,1.66502 -0.391562,2.53457 0.21236,0.8699 0.750317,1.6047 1.51545,2.06963 0.166502,0.10124 0.219416,0.31784 0.118174,0.48469 -0.06632,0.10936 -0.182729,0.16933 -0.301608,0.16933 -0.04692,0 -0.09348,-0.0127 -0.138282,-0.0321 0.557359,0.33018 1.199027,0.53231 1.885142,0.56194 l 2.895795,0.001 c 1.872089,-0.03 3.475729,-1.18527 4.159375,-2.81925 0.692465,1.6555 2.329265,2.82207 4.233103,2.82207 3.306758,0 5.996894,-2.69014 5.996894,-5.99689 v -3.52759 z"
         id="path4458" />
      <g
         id="g4462"
         transform="matrix(0.35275852,0,0,0.35275852,-68.551041,91.999563)">
        <path
           inkscape:connector-curvature="0"
           style="fill:#abcadd"
           d="M 52.936,20.068 C 52.705,13.929 47.652,9.002 41.458,9.002 c -6.142,0 -11.16,4.844 -11.47,10.91 -0.558,0.012 -1.119,0.078 -1.676,0.209 -2.336,0.55 -4.185,2.082 -5.229,4.052 -2.882,-0.585 -5.848,0.433 -7.75,2.742 -1.251,1.52 -1.879,3.408 -1.81,5.359 -4.63,-0.834 -9.34,1.224 -11.844,5.344 -1.596,2.625 -2.073,5.714 -1.345,8.698 0.728,2.984 2.575,5.506 5.2,7.102 0.162,0.099 0.342,0.146 0.519,0.146 0.338,0 0.667,-0.171 0.855,-0.48 C 7.195,52.611 7.045,51.997 6.573,51.71 4.404,50.392 2.879,48.309 2.277,45.843 1.675,43.378 2.07,40.826 3.387,38.658 c 2.196,-3.614 6.447,-5.315 10.49,-4.262 0.458,1.471 1.33,2.779 2.546,3.781 0.187,0.153 0.411,0.228 0.635,0.228 0.289,0 0.575,-0.124 0.773,-0.364 0.351,-0.427 0.289,-1.057 -0.137,-1.408 -1.016,-0.836 -1.679,-1.941 -1.985,-3.127 -10e-4,-0.012 -0.007,-0.022 -0.008,-0.034 -0.45,-1.787 -0.083,-3.756 1.175,-5.285 1.356,-1.646 3.435,-2.423 5.493,-2.122 -0.28,1.173 -0.307,2.423 -0.012,3.674 0.108,0.461 0.52,0.771 0.973,0.771 0.076,0 0.153,-0.009 0.229,-0.026 0.538,-0.127 0.871,-0.665 0.745,-1.202 -0.758,-3.221 1.246,-6.457 4.467,-7.215 3.215,-0.759 6.456,1.245 7.214,4.467 0.127,0.537 0.665,0.865 1.203,0.744 0.537,-0.127 0.87,-0.665 0.744,-1.203 -0.49,-2.08 -1.76,-3.845 -3.576,-4.97 -0.746,-0.462 -1.549,-0.785 -2.378,-0.981 0.2,-5.063 4.37,-9.123 9.481,-9.123 5.094,0 9.253,4.033 9.478,9.073 -3.929,0.504 -6.978,3.863 -6.978,7.927 0,0.553 0.447,1 1,1 0.553,0 1,-0.447 1,-1 0,-3.309 2.691,-6 6,-6 3.309,0 6.046,2.691 6.046,6 0,0.028 0,1.327 0,3 0,0.552 0.448,1 1,1 0.552,0 1,-0.448 1,-1 v -3 c -0.002,-4.079 -3.119,-7.449 -7.069,-7.933 z"
           id="path4460" />
      </g>
      <g
         id="g4466"
         transform="matrix(0.35275852,0,0,0.35275852,-68.551041,91.999563)">
        <path
           inkscape:connector-curvature="0"
           style="fill:#abcadd"
           d="m 43.003,55.002 c -4.973,0 -9.491,-2.608 -12,-6.789 -2.509,4.181 -7.027,6.789 -12,6.789 -0.552,0 -1,-0.447 -1,-1 0,-0.553 0.448,-1 1,-1 4.853,0 9.201,-2.899 11.078,-7.386 l 0.922,-2.206 0.922,2.206 c 1.876,4.486 6.225,7.386 11.078,7.386 0.552,0 1,0.447 1,1 0,0.553 -0.447,1 -1,1 z"
           id="path4464" />
      </g>
      <path
         inkscape:connector-curvature="0"
         style="fill:#abcadd;stroke-width:0.35275853"
         d="m -49.184245,106.41892 c -0.161564,-1.40362 -1.355651,-2.49823 -2.801961,-2.49823 -1.556018,0 -2.822069,1.26605 -2.822069,2.82206 0,0.19473 0.158036,0.35276 0.352759,0.35276 0.194723,0 0.352758,-0.15803 0.352758,-0.35276 0,-1.16727 0.949274,-2.11655 2.116552,-2.11655 1.059333,0 1.936644,0.78277 2.090094,1.79978 -0.986666,0.17955 -1.737336,1.0431 -1.737336,2.08057 0,0.19472 0.158036,0.35275 0.352759,0.35275 0.194722,0 0.352758,-0.15803 0.352758,-0.35275 0,-0.77819 0.632849,-1.41104 1.411034,-1.41104 0.778186,0 1.411034,0.63285 1.411034,1.41104 0,0.19472 0.158036,0.35275 0.352759,0.35275 0.194723,0 0.352758,-0.15803 0.352758,-0.35275 0,-1.05334 -0.774657,-1.92712 -1.783899,-2.08763 z"
         id="path4468" />
    </g>
    <ellipse
       style="opacity:1;fill:#f0c419;fill-opacity:1;stroke:none;stroke-width:1.36600423;stroke-linecap:round;stroke-miterlimit:4;stroke-dasharray:none"
       id="circle4474"
       cx="97.392807"
       cy="99.472969"
       rx="5.9133382"
       ry="5.9536343" />
    <g
       id="g4488"
       transform="matrix(1,0,0,1.0068145,137.85074,-0.77928028)"
       clip-path="url(#clipPath4625)">
      <path
         id="path4476"
         d="m -47.392938,101.52475 h -0.02857 c 0.01235,0.10724 0.02081,0.21554 0.02081,0.3263 0,0.19508 -0.157683,0.35276 -0.352759,0.35276 -0.195075,0 -0.352758,-0.15768 -0.352758,-0.35276 0,-1.16728 -0.949274,-2.116551 -2.116552,-2.116551 -1.167278,0 -2.116551,0.949271 -2.116551,2.116551 0,0.19508 -0.157683,0.35276 -0.352758,0.35276 -0.195076,0 -0.352759,-0.15768 -0.352759,-0.35276 0,-1.43361 1.075561,-2.618531 2.461549,-2.796321 -0.07972,-1.777546 -1.546493,-3.200574 -3.343445,-3.200574 -1.802949,0 -3.273952,1.4322 -3.344504,3.218214 0.292437,0.0691 0.575702,0.18344 0.83886,0.34606 0.64061,0.39685 1.088613,1.019471 1.261465,1.753211 0.04445,0.18978 -0.07302,0.37957 -0.262453,0.42437 -0.189784,0.0427 -0.379568,-0.073 -0.424368,-0.26246 -0.267391,-1.13658 -1.410681,-1.843511 -2.5448,-1.575771 -1.136235,0.267391 -1.843163,1.408921 -1.575772,2.545151 0.04445,0.18944 -0.07302,0.37922 -0.262806,0.42402 -0.02681,0.006 -0.05397,0.009 -0.08078,0.009 -0.1598,0 -0.304784,-0.10971 -0.343234,-0.27197 -0.103711,-0.44131 -0.09454,-0.88261 0.0042,-1.29604 -0.725977,-0.10618 -1.459362,0.16791 -1.937703,0.74855 -0.44377,0.53937 -0.573232,1.23395 -0.414491,1.86433 3.53e-4,0.004 0.0025,0.008 0.0028,0.012 0.107944,0.41837 0.342176,0.80781 0.700226,1.10307 0.150275,0.12417 0.171793,0.34606 0.04833,0.49669 -0.06985,0.0847 -0.170735,0.1284 -0.272683,0.1284 -0.07902,0 -0.158035,-0.0261 -0.224001,-0.0804 -0.429307,-0.35346 -0.73656,-0.81522 -0.898124,-1.33378 -1.426202,-0.37181 -2.925779,0.22824 -3.700436,1.50346 -0.464583,0.76478 -0.603923,1.66502 -0.391562,2.53457 0.21236,0.8699 0.750317,1.6047 1.51545,2.06963 0.166502,0.10124 0.219416,0.31784 0.118174,0.48469 -0.06632,0.10936 -0.182729,0.16933 -0.301608,0.16933 -0.04692,0 -0.09348,-0.0127 -0.138282,-0.0321 0.557359,0.33018 1.199027,0.53231 1.885142,0.56194 l 2.895795,0.001 c 1.872089,-0.03 3.475729,-1.18527 4.159375,-2.81925 0.692465,1.6555 2.329265,2.82207 4.233103,2.82207 3.306758,0 5.996894,-2.69014 5.996894,-5.99689 v -3.52759 z"
         style="fill:#d0e8f9;stroke-width:0.35275853"
         inkscape:connector-curvature="0" />
      <g
         transform="matrix(0.35275852,0,0,0.35275852,-68.551041,91.999563)"
         id="g4480">
        <path
           id="path4478"
           d="M 52.936,20.068 C 52.705,13.929 47.652,9.002 41.458,9.002 c -6.142,0 -11.16,4.844 -11.47,10.91 -0.558,0.012 -1.119,0.078 -1.676,0.209 -2.336,0.55 -4.185,2.082 -5.229,4.052 -2.882,-0.585 -5.848,0.433 -7.75,2.742 -1.251,1.52 -1.879,3.408 -1.81,5.359 -4.63,-0.834 -9.34,1.224 -11.844,5.344 -1.596,2.625 -2.073,5.714 -1.345,8.698 0.728,2.984 2.575,5.506 5.2,7.102 0.162,0.099 0.342,0.146 0.519,0.146 0.338,0 0.667,-0.171 0.855,-0.48 C 7.195,52.611 7.045,51.997 6.573,51.71 4.404,50.392 2.879,48.309 2.277,45.843 1.675,43.378 2.07,40.826 3.387,38.658 c 2.196,-3.614 6.447,-5.315 10.49,-4.262 0.458,1.471 1.33,2.779 2.546,3.781 0.187,0.153 0.411,0.228 0.635,0.228 0.289,0 0.575,-0.124 0.773,-0.364 0.351,-0.427 0.289,-1.057 -0.137,-1.408 -1.016,-0.836 -1.679,-1.941 -1.985,-3.127 -10e-4,-0.012 -0.007,-0.022 -0.008,-0.034 -0.45,-1.787 -0.083,-3.756 1.175,-5.285 1.356,-1.646 3.435,-2.423 5.493,-2.122 -0.28,1.173 -0.307,2.423 -0.012,3.674 0.108,0.461 0.52,0.771 0.973,0.771 0.076,0 0.153,-0.009 0.229,-0.026 0.538,-0.127 0.871,-0.665 0.745,-1.202 -0.758,-3.221 1.246,-6.457 4.467,-7.215 3.215,-0.759 6.456,1.245 7.214,4.467 0.127,0.537 0.665,0.865 1.203,0.744 0.537,-0.127 0.87,-0.665 0.744,-1.203 -0.49,-2.08 -1.76,-3.845 -3.576,-4.97 -0.746,-0.462 -1.549,-0.785 -2.378,-0.981 0.2,-5.063 4.37,-9.123 9.481,-9.123 5.094,0 9.253,4.033 9.478,9.073 -3.929,0.504 -6.978,3.863 -6.978,7.927 0,0.553 0.447,1 1,1 0.553,0 1,-0.447 1,-1 0,-3.309 2.691,-6 6,-6 3.309,0 6.046,2.691 6.046,6 0,0.028 0,1.327 0,3 0,0.552 0.448,1 1,1 0.552,0 1,-0.448 1,-1 v -3 c -0.002,-4.079 -3.119,-7.449 -7.069,-7.933 z"
           style="fill:#abcadd"
           inkscape:connector-curvature="0" />
      </g>
      <g
         transform="matrix(0.35275852,0,0,0.35275852,-68.551041,91.999563)"
         id="g4484">
        <path
           id="path4482"
           d="m 43.003,55.002 c -4.973,0 -9.491,-2.608 -12,-6.789 -2.509,4.181 -7.027,6.789 -12,6.789 -0.552,0 -1,-0.447 -1,-1 0,-0.553 0.448,-1 1,-1 4.853,0 9.201,-2.899 11.078,-7.386 l 0.922,-2.206 0.922,2.206 c 1.876,4.486 6.225,7.386 11.078,7.386 0.552,0 1,0.447 1,1 0,0.553 -0.447,1 -1,1 z"
           style="fill:#abcadd"
           inkscape:connector-curvature="0" />
      </g>
      <path
         id="path4486"
         d="m -49.184245,106.41892 c -0.161564,-1.40362 -1.355651,-2.49823 -2.801961,-2.49823 -1.556018,0 -2.822069,1.26605 -2.822069,2.82206 0,0.19473 0.158036,0.35276 0.352759,0.35276 0.194723,0 0.352758,-0.15803 0.352758,-0.35276 0,-1.16727 0.949274,-2.11655 2.116552,-2.11655 1.059333,0 1.936644,0.78277 2.090094,1.79978 -0.986666,0.17955 -1.737336,1.0431 -1.737336,2.08057 0,0.19472 0.158036,0.35275 0.352759,0.35275 0.194722,0 0.352758,-0.15803 0.352758,-0.35275 0,-0.77819 0.632849,-1.41104 1.411034,-1.41104 0.778186,0 1.411034,0.63285 1.411034,1.41104 0,0.19472 0.158036,0.35275 0.352759,0.35275 0.194723,0 0.352758,-0.15803 0.352758,-0.35275 0,-1.05334 -0.774657,-1.92712 -1.783899,-2.08763 z"
         style="fill:#abcadd;stroke-width:0.35275853"
         inkscape:connector-curvature="0" />
    </g>
    <ellipse
       cy="99.472969"
       cx="137.08031"
       id="circle4492"
       style="opacity:1;fill:#f0c419;fill-opacity:1;stroke:none;stroke-width:1.36600423;stroke-linecap:round;stroke-miterlimit:4;stroke-dasharray:none"
       rx="5.9133382"
       ry="5.9536343" />
    <g
       transform="matrix(1,0,0,1.0068145,172.72739,-0.77928028)"
       id="g4506"
       clip-path="url(#clipPath4631)">
      <path
         inkscape:connector-curvature="0"
         style="fill:#d0e8f9;stroke-width:0.35275853"
         d="m -47.392938,101.52475 h -0.02857 c 0.01235,0.10724 0.02081,0.21554 0.02081,0.3263 0,0.19508 -0.157683,0.35276 -0.352759,0.35276 -0.195075,0 -0.352758,-0.15768 -0.352758,-0.35276 0,-1.16728 -0.949274,-2.116551 -2.116552,-2.116551 -1.167278,0 -2.116551,0.949271 -2.116551,2.116551 0,0.19508 -0.157683,0.35276 -0.352758,0.35276 -0.195076,0 -0.352759,-0.15768 -0.352759,-0.35276 0,-1.43361 1.075561,-2.618531 2.461549,-2.796321 -0.07972,-1.777546 -1.546493,-3.200574 -3.343445,-3.200574 -1.802949,0 -3.273952,1.4322 -3.344504,3.218214 0.292437,0.0691 0.575702,0.18344 0.83886,0.34606 0.64061,0.39685 1.088613,1.019471 1.261465,1.753211 0.04445,0.18978 -0.07302,0.37957 -0.262453,0.42437 -0.189784,0.0427 -0.379568,-0.073 -0.424368,-0.26246 -0.267391,-1.13658 -1.410681,-1.843511 -2.5448,-1.575771 -1.136235,0.267391 -1.843163,1.408921 -1.575772,2.545151 0.04445,0.18944 -0.07302,0.37922 -0.262806,0.42402 -0.02681,0.006 -0.05397,0.009 -0.08078,0.009 -0.1598,0 -0.304784,-0.10971 -0.343234,-0.27197 -0.103711,-0.44131 -0.09454,-0.88261 0.0042,-1.29604 -0.725977,-0.10618 -1.459362,0.16791 -1.937703,0.74855 -0.44377,0.53937 -0.573232,1.23395 -0.414491,1.86433 3.53e-4,0.004 0.0025,0.008 0.0028,0.012 0.107944,0.41837 0.342176,0.80781 0.700226,1.10307 0.150275,0.12417 0.171793,0.34606 0.04833,0.49669 -0.06985,0.0847 -0.170735,0.1284 -0.272683,0.1284 -0.07902,0 -0.158035,-0.0261 -0.224001,-0.0804 -0.429307,-0.35346 -0.73656,-0.81522 -0.898124,-1.33378 -1.426202,-0.37181 -2.925779,0.22824 -3.700436,1.50346 -0.464583,0.76478 -0.603923,1.66502 -0.391562,2.53457 0.21236,0.8699 0.750317,1.6047 1.51545,2.06963 0.166502,0.10124 0.219416,0.31784 0.118174,0.48469 -0.06632,0.10936 -0.182729,0.16933 -0.301608,0.16933 -0.04692,0 -0.09348,-0.0127 -0.138282,-0.0321 0.557359,0.33018 1.199027,0.53231 1.885142,0.56194 l 2.895795,0.001 c 1.872089,-0.03 3.475729,-1.18527 4.159375,-2.81925 0.692465,1.6555 2.329265,2.82207 4.233103,2.82207 3.306758,0 5.996894,-2.69014 5.996894,-5.99689 v -3.52759 z"
         id="path4494" />
      <g
         id="g4498"
         transform="matrix(0.35275852,0,0,0.35275852,-68.551041,91.999563)">
        <path
           inkscape:connector-curvature="0"
           style="fill:#abcadd"
           d="M 52.936,20.068 C 52.705,13.929 47.652,9.002 41.458,9.002 c -6.142,0 -11.16,4.844 -11.47,10.91 -0.558,0.012 -1.119,0.078 -1.676,0.209 -2.336,0.55 -4.185,2.082 -5.229,4.052 -2.882,-0.585 -5.848,0.433 -7.75,2.742 -1.251,1.52 -1.879,3.408 -1.81,5.359 -4.63,-0.834 -9.34,1.224 -11.844,5.344 -1.596,2.625 -2.073,5.714 -1.345,8.698 0.728,2.984 2.575,5.506 5.2,7.102 0.162,0.099 0.342,0.146 0.519,0.146 0.338,0 0.667,-0.171 0.855,-0.48 C 7.195,52.611 7.045,51.997 6.573,51.71 4.404,50.392 2.879,48.309 2.277,45.843 1.675,43.378 2.07,40.826 3.387,38.658 c 2.196,-3.614 6.447,-5.315 10.49,-4.262 0.458,1.471 1.33,2.779 2.546,3.781 0.187,0.153 0.411,0.228 0.635,0.228 0.289,0 0.575,-0.124 0.773,-0.364 0.351,-0.427 0.289,-1.057 -0.137,-1.408 -1.016,-0.836 -1.679,-1.941 -1.985,-3.127 -10e-4,-0.012 -0.007,-0.022 -0.008,-0.034 -0.45,-1.787 -0.083,-3.756 1.175,-5.285 1.356,-1.646 3.435,-2.423 5.493,-2.122 -0.28,1.173 -0.307,2.423 -0.012,3.674 0.108,0.461 0.52,0.771 0.973,0.771 0.076,0 0.153,-0.009 0.229,-0.026 0.538,-0.127 0.871,-0.665 0.745,-1.202 -0.758,-3.221 1.246,-6.457 4.467,-7.215 3.215,-0.759 6.456,1.245 7.214,4.467 0.127,0.537 0.665,0.865 1.203,0.744 0.537,-0.127 0.87,-0.665 0.744,-1.203 -0.49,-2.08 -1.76,-3.845 -3.576,-4.97 -0.746,-0.462 -1.549,-0.785 -2.378,-0.981 0.2,-5.063 4.37,-9.123 9.481,-9.123 5.094,0 9.253,4.033 9.478,9.073 -3.929,0.504 -6.978,3.863 -6.978,7.927 0,0.553 0.447,1 1,1 0.553,0 1,-0.447 1,-1 0,-3.309 2.691,-6 6,-6 3.309,0 6.046,2.691 6.046,6 0,0.028 0,1.327 0,3 0,0.552 0.448,1 1,1 0.552,0 1,-0.448 1,-1 v -3 c -0.002,-4.079 -3.119,-7.449 -7.069,-7.933 z"
           id="path4496" />
      </g>
      <g
         id="g4502"
         transform="matrix(0.35275852,0,0,0.35275852,-68.551041,91.999563)">
        <path
           inkscape:connector-curvature="0"
           style="fill:#abcadd"
           d="m 43.003,55.002 c -4.973,0 -9.491,-2.608 -12,-6.789 -2.509,4.181 -7.027,6.789 -12,6.789 -0.552,0 -1,-0.447 -1,-1 0,-0.553 0.448,-1 1,-1 4.853,0 9.201,-2.899 11.078,-7.386 l 0.922,-2.206 0.922,2.206 c 1.876,4.486 6.225,7.386 11.078,7.386 0.552,0 1,0.447 1,1 0,0.553 -0.447,1 -1,1 z"
           id="path4500" />
      </g>
      <path
         inkscape:connector-curvature="0"
         style="fill:#abcadd;stroke-width:0.35275853"
         d="m -49.184245,106.41892 c -0.161564,-1.40362 -1.355651,-2.49823 -2.801961,-2.49823 -1.556018,0 -2.822069,1.26605 -2.822069,2.82206 0,0.19473 0.158036,0.35276 0.352759,0.35276 0.194723,0 0.352758,-0.15803 0.352758,-0.35276 0,-1.16727 0.949274,-2.11655 2.116552,-2.11655 1.059333,0 1.936644,0.78277 2.090094,1.79978 -0.986666,0.17955 -1.737336,1.0431 -1.737336,2.08057 0,0.19472 0.158036,0.35275 0.352759,0.35275 0.194722,0 0.352758,-0.15803 0.352758,-0.35275 0,-0.77819 0.632849,-1.41104 1.411034,-1.41104 0.778186,0 1.411034,0.63285 1.411034,1.41104 0,0.19472 0.158036,0.35275 0.352759,0.35275 0.194723,0 0.352758,-0.15803 0.352758,-0.35275 0,-1.05334 -0.774657,-1.92712 -1.783899,-2.08763 z"
         id="path4504" />
    </g>
    <ellipse
       style="opacity:1;fill:#f0c419;fill-opacity:1;stroke:none;stroke-width:1.36600423;stroke-linecap:round;stroke-miterlimit:4;stroke-dasharray:none"
       id="circle4510"
       cx="176.76781"
       cy="99.472969"
       rx="5.9133382"
       ry="5.9536343" />
    <g
       id="g4524"
       transform="matrix(1,0,0,1.0068145,263.73063,-0.77928028)"
       clip-path="url(#clipPath4637)">
      <path
         id="path4512"
         d="m -47.392938,101.52475 h -0.02857 c 0.01235,0.10724 0.02081,0.21554 0.02081,0.3263 0,0.19508 -0.157683,0.35276 -0.352759,0.35276 -0.195075,0 -0.352758,-0.15768 -0.352758,-0.35276 0,-1.16728 -0.949274,-2.116551 -2.116552,-2.116551 -1.167278,0 -2.116551,0.949271 -2.116551,2.116551 0,0.19508 -0.157683,0.35276 -0.352758,0.35276 -0.195076,0 -0.352759,-0.15768 -0.352759,-0.35276 0,-1.43361 1.075561,-2.618531 2.461549,-2.796321 -0.07972,-1.777546 -1.546493,-3.200574 -3.343445,-3.200574 -1.802949,0 -3.273952,1.4322 -3.344504,3.218214 0.292437,0.0691 0.575702,0.18344 0.83886,0.34606 0.64061,0.39685 1.088613,1.019471 1.261465,1.753211 0.04445,0.18978 -0.07302,0.37957 -0.262453,0.42437 -0.189784,0.0427 -0.379568,-0.073 -0.424368,-0.26246 -0.267391,-1.13658 -1.410681,-1.843511 -2.5448,-1.575771 -1.136235,0.267391 -1.843163,1.408921 -1.575772,2.545151 0.04445,0.18944 -0.07302,0.37922 -0.262806,0.42402 -0.02681,0.006 -0.05397,0.009 -0.08078,0.009 -0.1598,0 -0.304784,-0.10971 -0.343234,-0.27197 -0.103711,-0.44131 -0.09454,-0.88261 0.0042,-1.29604 -0.725977,-0.10618 -1.459362,0.16791 -1.937703,0.74855 -0.44377,0.53937 -0.573232,1.23395 -0.414491,1.86433 3.53e-4,0.004 0.0025,0.008 0.0028,0.012 0.107944,0.41837 0.342176,0.80781 0.700226,1.10307 0.150275,0.12417 0.171793,0.34606 0.04833,0.49669 -0.06985,0.0847 -0.170735,0.1284 -0.272683,0.1284 -0.07902,0 -0.158035,-0.0261 -0.224001,-0.0804 -0.429307,-0.35346 -0.73656,-0.81522 -0.898124,-1.33378 -1.426202,-0.37181 -2.925779,0.22824 -3.700436,1.50346 -0.464583,0.76478 -0.603923,1.66502 -0.391562,2.53457 0.21236,0.8699 0.750317,1.6047 1.51545,2.06963 0.166502,0.10124 0.219416,0.31784 0.118174,0.48469 -0.06632,0.10936 -0.182729,0.16933 -0.301608,0.16933 -0.04692,0 -0.09348,-0.0127 -0.138282,-0.0321 0.557359,0.33018 1.199027,0.53231 1.885142,0.56194 l 2.895795,0.001 c 1.872089,-0.03 3.475729,-1.18527 4.159375,-2.81925 0.692465,1.6555 2.329265,2.82207 4.233103,2.82207 3.306758,0 5.996894,-2.69014 5.996894,-5.99689 v -3.52759 z"
         style="fill:#d0e8f9;stroke-width:0.35275853"
         inkscape:connector-curvature="0" />
      <g
         transform="matrix(0.35275852,0,0,0.35275852,-68.551041,91.999563)"
         id="g4516">
        <path
           id="path4514"
           d="M 52.936,20.068 C 52.705,13.929 47.652,9.002 41.458,9.002 c -6.142,0 -11.16,4.844 -11.47,10.91 -0.558,0.012 -1.119,0.078 -1.676,0.209 -2.336,0.55 -4.185,2.082 -5.229,4.052 -2.882,-0.585 -5.848,0.433 -7.75,2.742 -1.251,1.52 -1.879,3.408 -1.81,5.359 -4.63,-0.834 -9.34,1.224 -11.844,5.344 -1.596,2.625 -2.073,5.714 -1.345,8.698 0.728,2.984 2.575,5.506 5.2,7.102 0.162,0.099 0.342,0.146 0.519,0.146 0.338,0 0.667,-0.171 0.855,-0.48 C 7.195,52.611 7.045,51.997 6.573,51.71 4.404,50.392 2.879,48.309 2.277,45.843 1.675,43.378 2.07,40.826 3.387,38.658 c 2.196,-3.614 6.447,-5.315 10.49,-4.262 0.458,1.471 1.33,2.779 2.546,3.781 0.187,0.153 0.411,0.228 0.635,0.228 0.289,0 0.575,-0.124 0.773,-0.364 0.351,-0.427 0.289,-1.057 -0.137,-1.408 -1.016,-0.836 -1.679,-1.941 -1.985,-3.127 -10e-4,-0.012 -0.007,-0.022 -0.008,-0.034 -0.45,-1.787 -0.083,-3.756 1.175,-5.285 1.356,-1.646 3.435,-2.423 5.493,-2.122 -0.28,1.173 -0.307,2.423 -0.012,3.674 0.108,0.461 0.52,0.771 0.973,0.771 0.076,0 0.153,-0.009 0.229,-0.026 0.538,-0.127 0.871,-0.665 0.745,-1.202 -0.758,-3.221 1.246,-6.457 4.467,-7.215 3.215,-0.759 6.456,1.245 7.214,4.467 0.127,0.537 0.665,0.865 1.203,0.744 0.537,-0.127 0.87,-0.665 0.744,-1.203 -0.49,-2.08 -1.76,-3.845 -3.576,-4.97 -0.746,-0.462 -1.549,-0.785 -2.378,-0.981 0.2,-5.063 4.37,-9.123 9.481,-9.123 5.094,0 9.253,4.033 9.478,9.073 -3.929,0.504 -6.978,3.863 -6.978,7.927 0,0.553 0.447,1 1,1 0.553,0 1,-0.447 1,-1 0,-3.309 2.691,-6 6,-6 3.309,0 6.046,2.691 6.046,6 0,0.028 0,1.327 0,3 0,0.552 0.448,1 1,1 0.552,0 1,-0.448 1,-1 v -3 c -0.002,-4.079 -3.119,-7.449 -7.069,-7.933 z"
           style="fill:#abcadd"
           inkscape:connector-curvature="0" />
      </g>
      <g
         transform="matrix(0.35275852,0,0,0.35275852,-68.551041,91.999563)"
         id="g4520">
        <path
           id="path4518"
           d="m 43.003,55.002 c -4.973,0 -9.491,-2.608 -12,-6.789 -2.509,4.181 -7.027,6.789 -12,6.789 -0.552,0 -1,-0.447 -1,-1 0,-0.553 0.448,-1 1,-1 4.853,0 9.201,-2.899 11.078,-7.386 l 0.922,-2.206 0.922,2.206 c 1.876,4.486 6.225,7.386 11.078,7.386 0.552,0 1,0.447 1,1 0,0.553 -0.447,1 -1,1 z"
           style="fill:#abcadd"
           inkscape:connector-curvature="0" />
      </g>
      <path
         id="path4522"
         d="m -49.184245,106.41892 c -0.161564,-1.40362 -1.355651,-2.49823 -2.801961,-2.49823 -1.556018,0 -2.822069,1.26605 -2.822069,2.82206 0,0.19473 0.158036,0.35276 0.352759,0.35276 0.194723,0 0.352758,-0.15803 0.352758,-0.35276 0,-1.16727 0.949274,-2.11655 2.116552,-2.11655 1.059333,0 1.936644,0.78277 2.090094,1.79978 -0.986666,0.17955 -1.737336,1.0431 -1.737336,2.08057 0,0.19472 0.158036,0.35275 0.352759,0.35275 0.194722,0 0.352758,-0.15803 0.352758,-0.35275 0,-0.77819 0.632849,-1.41104 1.411034,-1.41104 0.778186,0 1.411034,0.63285 1.411034,1.41104 0,0.19472 0.158036,0.35275 0.352759,0.35275 0.194723,0 0.352758,-0.15803 0.352758,-0.35275 0,-1.05334 -0.774657,-1.92712 -1.783899,-2.08763 z"
         style="fill:#abcadd;stroke-width:0.35275853"
         inkscape:connector-curvature="0" />
    </g>
    <ellipse
       cy="99.472969"
       cx="216.45531"
       id="circle4528"
       style="opacity:1;fill:#f0c419;fill-opacity:1;stroke:none;stroke-width:1.36600423;stroke-linecap:round;stroke-miterlimit:4;stroke-dasharray:none"
       rx="5.9133382"
       ry="5.9536343" />
    <g
       transform="matrix(1,0,0,1.0068145,294.95141,-0.77928028)"
       id="g4542"
       clip-path="url(#clipPath4643)">
      <path
         inkscape:connector-curvature="0"
         style="fill:#d0e8f9;stroke-width:0.35275853"
         d="m -47.392938,101.52475 h -0.02857 c 0.01235,0.10724 0.02081,0.21554 0.02081,0.3263 0,0.19508 -0.157683,0.35276 -0.352759,0.35276 -0.195075,0 -0.352758,-0.15768 -0.352758,-0.35276 0,-1.16728 -0.949274,-2.116551 -2.116552,-2.116551 -1.167278,0 -2.116551,0.949271 -2.116551,2.116551 0,0.19508 -0.157683,0.35276 -0.352758,0.35276 -0.195076,0 -0.352759,-0.15768 -0.352759,-0.35276 0,-1.43361 1.075561,-2.618531 2.461549,-2.796321 -0.07972,-1.777546 -1.546493,-3.200574 -3.343445,-3.200574 -1.802949,0 -3.273952,1.4322 -3.344504,3.218214 0.292437,0.0691 0.575702,0.18344 0.83886,0.34606 0.64061,0.39685 1.088613,1.019471 1.261465,1.753211 0.04445,0.18978 -0.07302,0.37957 -0.262453,0.42437 -0.189784,0.0427 -0.379568,-0.073 -0.424368,-0.26246 -0.267391,-1.13658 -1.410681,-1.843511 -2.5448,-1.575771 -1.136235,0.267391 -1.843163,1.408921 -1.575772,2.545151 0.04445,0.18944 -0.07302,0.37922 -0.262806,0.42402 -0.02681,0.006 -0.05397,0.009 -0.08078,0.009 -0.1598,0 -0.304784,-0.10971 -0.343234,-0.27197 -0.103711,-0.44131 -0.09454,-0.88261 0.0042,-1.29604 -0.725977,-0.10618 -1.459362,0.16791 -1.937703,0.74855 -0.44377,0.53937 -0.573232,1.23395 -0.414491,1.86433 3.53e-4,0.004 0.0025,0.008 0.0028,0.012 0.107944,0.41837 0.342176,0.80781 0.700226,1.10307 0.150275,0.12417 0.171793,0.34606 0.04833,0.49669 -0.06985,0.0847 -0.170735,0.1284 -0.272683,0.1284 -0.07902,0 -0.158035,-0.0261 -0.224001,-0.0804 -0.429307,-0.35346 -0.73656,-0.81522 -0.898124,-1.33378 -1.426202,-0.37181 -2.925779,0.22824 -3.700436,1.50346 -0.464583,0.76478 -0.603923,1.66502 -0.391562,2.53457 0.21236,0.8699 0.750317,1.6047 1.51545,2.06963 0.166502,0.10124 0.219416,0.31784 0.118174,0.48469 -0.06632,0.10936 -0.182729,0.16933 -0.301608,0.16933 -0.04692,0 -0.09348,-0.0127 -0.138282,-0.0321 0.557359,0.33018 1.199027,0.53231 1.885142,0.56194 l 2.895795,0.001 c 1.872089,-0.03 3.475729,-1.18527 4.159375,-2.81925 0.692465,1.6555 2.329265,2.82207 4.233103,2.82207 3.306758,0 5.996894,-2.69014 5.996894,-5.99689 v -3.52759 z"
         id="path4530" />
      <g
         id="g4534"
         transform="matrix(0.35275852,0,0,0.35275852,-68.551041,91.999563)">
        <path
           inkscape:connector-curvature="0"
           style="fill:#abcadd"
           d="M 52.936,20.068 C 52.705,13.929 47.652,9.002 41.458,9.002 c -6.142,0 -11.16,4.844 -11.47,10.91 -0.558,0.012 -1.119,0.078 -1.676,0.209 -2.336,0.55 -4.185,2.082 -5.229,4.052 -2.882,-0.585 -5.848,0.433 -7.75,2.742 -1.251,1.52 -1.879,3.408 -1.81,5.359 -4.63,-0.834 -9.34,1.224 -11.844,5.344 -1.596,2.625 -2.073,5.714 -1.345,8.698 0.728,2.984 2.575,5.506 5.2,7.102 0.162,0.099 0.342,0.146 0.519,0.146 0.338,0 0.667,-0.171 0.855,-0.48 C 7.195,52.611 7.045,51.997 6.573,51.71 4.404,50.392 2.879,48.309 2.277,45.843 1.675,43.378 2.07,40.826 3.387,38.658 c 2.196,-3.614 6.447,-5.315 10.49,-4.262 0.458,1.471 1.33,2.779 2.546,3.781 0.187,0.153 0.411,0.228 0.635,0.228 0.289,0 0.575,-0.124 0.773,-0.364 0.351,-0.427 0.289,-1.057 -0.137,-1.408 -1.016,-0.836 -1.679,-1.941 -1.985,-3.127 -10e-4,-0.012 -0.007,-0.022 -0.008,-0.034 -0.45,-1.787 -0.083,-3.756 1.175,-5.285 1.356,-1.646 3.435,-2.423 5.493,-2.122 -0.28,1.173 -0.307,2.423 -0.012,3.674 0.108,0.461 0.52,0.771 0.973,0.771 0.076,0 0.153,-0.009 0.229,-0.026 0.538,-0.127 0.871,-0.665 0.745,-1.202 -0.758,-3.221 1.246,-6.457 4.467,-7.215 3.215,-0.759 6.456,1.245 7.214,4.467 0.127,0.537 0.665,0.865 1.203,0.744 0.537,-0.127 0.87,-0.665 0.744,-1.203 -0.49,-2.08 -1.76,-3.845 -3.576,-4.97 -0.746,-0.462 -1.549,-0.785 -2.378,-0.981 0.2,-5.063 4.37,-9.123 9.481,-9.123 5.094,0 9.253,4.033 9.478,9.073 -3.929,0.504 -6.978,3.863 -6.978,7.927 0,0.553 0.447,1 1,1 0.553,0 1,-0.447 1,-1 0,-3.309 2.691,-6 6,-6 3.309,0 6.046,2.691 6.046,6 0,0.028 0,1.327 0,3 0,0.552 0.448,1 1,1 0.552,0 1,-0.448 1,-1 v -3 c -0.002,-4.079 -3.119,-7.449 -7.069,-7.933 z"
           id="path4532" />
      </g>
      <g
         id="g4538"
         transform="matrix(0.35275852,0,0,0.35275852,-68.551041,91.999563)">
        <path
           inkscape:connector-curvature="0"
           style="fill:#abcadd"
           d="m 43.003,55.002 c -4.973,0 -9.491,-2.608 -12,-6.789 -2.509,4.181 -7.027,6.789 -12,6.789 -0.552,0 -1,-0.447 -1,-1 0,-0.553 0.448,-1 1,-1 4.853,0 9.201,-2.899 11.078,-7.386 l 0.922,-2.206 0.922,2.206 c 1.876,4.486 6.225,7.386 11.078,7.386 0.552,0 1,0.447 1,1 0,0.553 -0.447,1 -1,1 z"
           id="path4536" />
      </g>
      <path
         inkscape:connector-curvature="0"
         style="fill:#abcadd;stroke-width:0.35275853"
         d="m -49.184245,106.41892 c -0.161564,-1.40362 -1.355651,-2.49823 -2.801961,-2.49823 -1.556018,0 -2.822069,1.26605 -2.822069,2.82206 0,0.19473 0.158036,0.35276 0.352759,0.35276 0.194723,0 0.352758,-0.15803 0.352758,-0.35276 0,-1.16727 0.949274,-2.11655 2.116552,-2.11655 1.059333,0 1.936644,0.78277 2.090094,1.79978 -0.986666,0.17955 -1.737336,1.0431 -1.737336,2.08057 0,0.19472 0.158036,0.35275 0.352759,0.35275 0.194722,0 0.352758,-0.15803 0.352758,-0.35275 0,-0.77819 0.632849,-1.41104 1.411034,-1.41104 0.778186,0 1.411034,0.63285 1.411034,1.41104 0,0.19472 0.158036,0.35275 0.352759,0.35275 0.194723,0 0.352758,-0.15803 0.352758,-0.35275 0,-1.05334 -0.774657,-1.92712 -1.783899,-2.08763 z"
         id="path4540" />
    </g>
    <ellipse
       style="opacity:1;fill:#f0c419;fill-opacity:1;stroke:none;stroke-width:1.36600423;stroke-linecap:round;stroke-miterlimit:4;stroke-dasharray:none"
       id="circle4546"
       cx="256.14282"
       cy="99.472969"
       rx="5.9133382"
       ry="5.9536343" />
    <g
       id="g4560"
       transform="matrix(1,0,0,1.0068145,325.11385,-0.77928028)">
      <path
         id="path4548"
         d="m -47.392938,101.52475 h -0.02857 c 0.01235,0.10724 0.02081,0.21554 0.02081,0.3263 0,0.19508 -0.157683,0.35276 -0.352759,0.35276 -0.195075,0 -0.352758,-0.15768 -0.352758,-0.35276 0,-1.16728 -0.949274,-2.116551 -2.116552,-2.116551 -1.167278,0 -2.116551,0.949271 -2.116551,2.116551 0,0.19508 -0.157683,0.35276 -0.352758,0.35276 -0.195076,0 -0.352759,-0.15768 -0.352759,-0.35276 0,-1.43361 1.075561,-2.618531 2.461549,-2.796321 -0.07972,-1.777546 -1.546493,-3.200574 -3.343445,-3.200574 -1.802949,0 -3.273952,1.4322 -3.344504,3.218214 0.292437,0.0691 0.575702,0.18344 0.83886,0.34606 0.64061,0.39685 1.088613,1.019471 1.261465,1.753211 0.04445,0.18978 -0.07302,0.37957 -0.262453,0.42437 -0.189784,0.0427 -0.379568,-0.073 -0.424368,-0.26246 -0.267391,-1.13658 -1.410681,-1.843511 -2.5448,-1.575771 -1.136235,0.267391 -1.843163,1.408921 -1.575772,2.545151 0.04445,0.18944 -0.07302,0.37922 -0.262806,0.42402 -0.02681,0.006 -0.05397,0.009 -0.08078,0.009 -0.1598,0 -0.304784,-0.10971 -0.343234,-0.27197 -0.103711,-0.44131 -0.09454,-0.88261 0.0042,-1.29604 -0.725977,-0.10618 -1.459362,0.16791 -1.937703,0.74855 -0.44377,0.53937 -0.573232,1.23395 -0.414491,1.86433 3.53e-4,0.004 0.0025,0.008 0.0028,0.012 0.107944,0.41837 0.342176,0.80781 0.700226,1.10307 0.150275,0.12417 0.171793,0.34606 0.04833,0.49669 -0.06985,0.0847 -0.170735,0.1284 -0.272683,0.1284 -0.07902,0 -0.158035,-0.0261 -0.224001,-0.0804 -0.429307,-0.35346 -0.73656,-0.81522 -0.898124,-1.33378 -1.426202,-0.37181 -2.925779,0.22824 -3.700436,1.50346 -0.464583,0.76478 -0.603923,1.66502 -0.391562,2.53457 0.21236,0.8699 0.750317,1.6047 1.51545,2.06963 0.166502,0.10124 0.219416,0.31784 0.118174,0.48469 -0.06632,0.10936 -0.182729,0.16933 -0.301608,0.16933 -0.04692,0 -0.09348,-0.0127 -0.138282,-0.0321 0.557359,0.33018 1.199027,0.53231 1.885142,0.56194 l 2.895795,0.001 c 1.872089,-0.03 3.475729,-1.18527 4.159375,-2.81925 0.692465,1.6555 2.329265,2.82207 4.233103,2.82207 3.306758,0 5.996894,-2.69014 5.996894,-5.99689 v -3.52759 z"
         style="fill:#d0e8f9;stroke-width:0.35275853"
         inkscape:connector-curvature="0" />
      <g
         transform="matrix(0.35275852,0,0,0.35275852,-68.551041,91.999563)"
         id="g4552">
        <path
           id="path4550"
           d="M 52.936,20.068 C 52.705,13.929 47.652,9.002 41.458,9.002 c -6.142,0 -11.16,4.844 -11.47,10.91 -0.558,0.012 -1.119,0.078 -1.676,0.209 -2.336,0.55 -4.185,2.082 -5.229,4.052 -2.882,-0.585 -5.848,0.433 -7.75,2.742 -1.251,1.52 -1.879,3.408 -1.81,5.359 -4.63,-0.834 -9.34,1.224 -11.844,5.344 -1.596,2.625 -2.073,5.714 -1.345,8.698 0.728,2.984 2.575,5.506 5.2,7.102 0.162,0.099 0.342,0.146 0.519,0.146 0.338,0 0.667,-0.171 0.855,-0.48 C 7.195,52.611 7.045,51.997 6.573,51.71 4.404,50.392 2.879,48.309 2.277,45.843 1.675,43.378 2.07,40.826 3.387,38.658 c 2.196,-3.614 6.447,-5.315 10.49,-4.262 0.458,1.471 1.33,2.779 2.546,3.781 0.187,0.153 0.411,0.228 0.635,0.228 0.289,0 0.575,-0.124 0.773,-0.364 0.351,-0.427 0.289,-1.057 -0.137,-1.408 -1.016,-0.836 -1.679,-1.941 -1.985,-3.127 -10e-4,-0.012 -0.007,-0.022 -0.008,-0.034 -0.45,-1.787 -0.083,-3.756 1.175,-5.285 1.356,-1.646 3.435,-2.423 5.493,-2.122 -0.28,1.173 -0.307,2.423 -0.012,3.674 0.108,0.461 0.52,0.771 0.973,0.771 0.076,0 0.153,-0.009 0.229,-0.026 0.538,-0.127 0.871,-0.665 0.745,-1.202 -0.758,-3.221 1.246,-6.457 4.467,-7.215 3.215,-0.759 6.456,1.245 7.214,4.467 0.127,0.537 0.665,0.865 1.203,0.744 0.537,-0.127 0.87,-0.665 0.744,-1.203 -0.49,-2.08 -1.76,-3.845 -3.576,-4.97 -0.746,-0.462 -1.549,-0.785 -2.378,-0.981 0.2,-5.063 4.37,-9.123 9.481,-9.123 5.094,0 9.253,4.033 9.478,9.073 -3.929,0.504 -6.978,3.863 -6.978,7.927 0,0.553 0.447,1 1,1 0.553,0 1,-0.447 1,-1 0,-3.309 2.691,-6 6,-6 3.309,0 6.046,2.691 6.046,6 0,0.028 0,1.327 0,3 0,0.552 0.448,1 1,1 0.552,0 1,-0.448 1,-1 v -3 c -0.002,-4.079 -3.119,-7.449 -7.069,-7.933 z"
           style="fill:#abcadd"
           inkscape:connector-curvature="0" />
      </g>
      <g
         transform="matrix(0.35275852,0,0,0.35275852,-68.551041,91.999563)"
         id="g4556">
        <path
           id="path4554"
           d="m 43.003,55.002 c -4.973,0 -9.491,-2.608 -12,-6.789 -2.509,4.181 -7.027,6.789 -12,6.789 -0.552,0 -1,-0.447 -1,-1 0,-0.553 0.448,-1 1,-1 4.853,0 9.201,-2.899 11.078,-7.386 l 0.922,-2.206 0.922,2.206 c 1.876,4.486 6.225,7.386 11.078,7.386 0.552,0 1,0.447 1,1 0,0.553 -0.447,1 -1,1 z"
           style="fill:#abcadd"
           inkscape:connector-curvature="0" />
      </g>
      <path
         id="path4558"
         d="m -49.184245,106.41892 c -0.161564,-1.40362 -1.355651,-2.49823 -2.801961,-2.49823 -1.556018,0 -2.822069,1.26605 -2.822069,2.82206 0,0.19473 0.158036,0.35276 0.352759,0.35276 0.194723,0 0.352758,-0.15803 0.352758,-0.35276 0,-1.16727 0.949274,-2.11655 2.116552,-2.11655 1.059333,0 1.936644,0.78277 2.090094,1.79978 -0.986666,0.17955 -1.737336,1.0431 -1.737336,2.08057 0,0.19472 0.158036,0.35275 0.352759,0.35275 0.194722,0 0.352758,-0.15803 0.352758,-0.35275 0,-0.77819 0.632849,-1.41104 1.411034,-1.41104 0.778186,0 1.411034,0.63285 1.411034,1.41104 0,0.19472 0.158036,0.35275 0.352759,0.35275 0.194723,0 0.352758,-0.15803 0.352758,-0.35275 0,-1.05334 -0.774657,-1.92712 -1.783899,-2.08763 z"
         style="fill:#abcadd;stroke-width:0.35275853"
         inkscape:connector-curvature="0" />
    </g>
    <ellipse
       cy="99.472969"
       cx="295.83032"
       id="circle4564"
       style="opacity:1;fill:#f0c419;fill-opacity:1;stroke:none;stroke-width:1.36600423;stroke-linecap:round;stroke-miterlimit:4;stroke-dasharray:none"
       rx="5.9133382"
       ry="5.9536343" />
    <g
       transform="matrix(1,0,0,1.0068145,363.21384,-0.77928028)"
       id="g4578">
      <path
         inkscape:connector-curvature="0"
         style="fill:#d0e8f9;stroke-width:0.35275853"
         d="m -47.392938,101.52475 h -0.02857 c 0.01235,0.10724 0.02081,0.21554 0.02081,0.3263 0,0.19508 -0.157683,0.35276 -0.352759,0.35276 -0.195075,0 -0.352758,-0.15768 -0.352758,-0.35276 0,-1.16728 -0.949274,-2.116551 -2.116552,-2.116551 -1.167278,0 -2.116551,0.949271 -2.116551,2.116551 0,0.19508 -0.157683,0.35276 -0.352758,0.35276 -0.195076,0 -0.352759,-0.15768 -0.352759,-0.35276 0,-1.43361 1.075561,-2.618531 2.461549,-2.796321 -0.07972,-1.777546 -1.546493,-3.200574 -3.343445,-3.200574 -1.802949,0 -3.273952,1.4322 -3.344504,3.218214 0.292437,0.0691 0.575702,0.18344 0.83886,0.34606 0.64061,0.39685 1.088613,1.019471 1.261465,1.753211 0.04445,0.18978 -0.07302,0.37957 -0.262453,0.42437 -0.189784,0.0427 -0.379568,-0.073 -0.424368,-0.26246 -0.267391,-1.13658 -1.410681,-1.843511 -2.5448,-1.575771 -1.136235,0.267391 -1.843163,1.408921 -1.575772,2.545151 0.04445,0.18944 -0.07302,0.37922 -0.262806,0.42402 -0.02681,0.006 -0.05397,0.009 -0.08078,0.009 -0.1598,0 -0.304784,-0.10971 -0.343234,-0.27197 -0.103711,-0.44131 -0.09454,-0.88261 0.0042,-1.29604 -0.725977,-0.10618 -1.459362,0.16791 -1.937703,0.74855 -0.44377,0.53937 -0.573232,1.23395 -0.414491,1.86433 3.53e-4,0.004 0.0025,0.008 0.0028,0.012 0.107944,0.41837 0.342176,0.80781 0.700226,1.10307 0.150275,0.12417 0.171793,0.34606 0.04833,0.49669 -0.06985,0.0847 -0.170735,0.1284 -0.272683,0.1284 -0.07902,0 -0.158035,-0.0261 -0.224001,-0.0804 -0.429307,-0.35346 -0.73656,-0.81522 -0.898124,-1.33378 -1.426202,-0.37181 -2.925779,0.22824 -3.700436,1.50346 -0.464583,0.76478 -0.603923,1.66502 -0.391562,2.53457 0.21236,0.8699 0.750317,1.6047 1.51545,2.06963 0.166502,0.10124 0.219416,0.31784 0.118174,0.48469 -0.06632,0.10936 -0.182729,0.16933 -0.301608,0.16933 -0.04692,0 -0.09348,-0.0127 -0.138282,-0.0321 0.557359,0.33018 1.199027,0.53231 1.885142,0.56194 l 2.895795,0.001 c 1.872089,-0.03 3.475729,-1.18527 4.159375,-2.81925 0.692465,1.6555 2.329265,2.82207 4.233103,2.82207 3.306758,0 5.996894,-2.69014 5.996894,-5.99689 v -3.52759 z"
         id="path4566" />
      <g
         id="g4570"
         transform="matrix(0.35275852,0,0,0.35275852,-68.551041,91.999563)">
        <path
           inkscape:connector-curvature="0"
           style="fill:#abcadd"
           d="M 52.936,20.068 C 52.705,13.929 47.652,9.002 41.458,9.002 c -6.142,0 -11.16,4.844 -11.47,10.91 -0.558,0.012 -1.119,0.078 -1.676,0.209 -2.336,0.55 -4.185,2.082 -5.229,4.052 -2.882,-0.585 -5.848,0.433 -7.75,2.742 -1.251,1.52 -1.879,3.408 -1.81,5.359 -4.63,-0.834 -9.34,1.224 -11.844,5.344 -1.596,2.625 -2.073,5.714 -1.345,8.698 0.728,2.984 2.575,5.506 5.2,7.102 0.162,0.099 0.342,0.146 0.519,0.146 0.338,0 0.667,-0.171 0.855,-0.48 C 7.195,52.611 7.045,51.997 6.573,51.71 4.404,50.392 2.879,48.309 2.277,45.843 1.675,43.378 2.07,40.826 3.387,38.658 c 2.196,-3.614 6.447,-5.315 10.49,-4.262 0.458,1.471 1.33,2.779 2.546,3.781 0.187,0.153 0.411,0.228 0.635,0.228 0.289,0 0.575,-0.124 0.773,-0.364 0.351,-0.427 0.289,-1.057 -0.137,-1.408 -1.016,-0.836 -1.679,-1.941 -1.985,-3.127 -10e-4,-0.012 -0.007,-0.022 -0.008,-0.034 -0.45,-1.787 -0.083,-3.756 1.175,-5.285 1.356,-1.646 3.435,-2.423 5.493,-2.122 -0.28,1.173 -0.307,2.423 -0.012,3.674 0.108,0.461 0.52,0.771 0.973,0.771 0.076,0 0.153,-0.009 0.229,-0.026 0.538,-0.127 0.871,-0.665 0.745,-1.202 -0.758,-3.221 1.246,-6.457 4.467,-7.215 3.215,-0.759 6.456,1.245 7.214,4.467 0.127,0.537 0.665,0.865 1.203,0.744 0.537,-0.127 0.87,-0.665 0.744,-1.203 -0.49,-2.08 -1.76,-3.845 -3.576,-4.97 -0.746,-0.462 -1.549,-0.785 -2.378,-0.981 0.2,-5.063 4.37,-9.123 9.481,-9.123 5.094,0 9.253,4.033 9.478,9.073 -3.929,0.504 -6.978,3.863 -6.978,7.927 0,0.553 0.447,1 1,1 0.553,0 1,-0.447 1,-1 0,-3.309 2.691,-6 6,-6 3.309,0 6.046,2.691 6.046,6 0,0.028 0,1.327 0,3 0,0.552 0.448,1 1,1 0.552,0 1,-0.448 1,-1 v -3 c -0.002,-4.079 -3.119,-7.449 -7.069,-7.933 z"
           id="path4568" />
      </g>
      <g
         id="g4574"
         transform="matrix(0.35275852,0,0,0.35275852,-68.551041,91.999563)">
        <path
           inkscape:connector-curvature="0"
           style="fill:#abcadd"
           d="m 43.003,55.002 c -4.973,0 -9.491,-2.608 -12,-6.789 -2.509,4.181 -7.027,6.789 -12,6.789 -0.552,0 -1,-0.447 -1,-1 0,-0.553 0.448,-1 1,-1 4.853,0 9.201,-2.899 11.078,-7.386 l 0.922,-2.206 0.922,2.206 c 1.876,4.486 6.225,7.386 11.078,7.386 0.552,0 1,0.447 1,1 0,0.553 -0.447,1 -1,1 z"
           id="path4572" />
      </g>
      <path
         inkscape:connector-curvature="0"
         style="fill:#abcadd;stroke-width:0.35275853"
         d="m -49.184245,106.41892 c -0.161564,-1.40362 -1.355651,-2.49823 -2.801961,-2.49823 -1.556018,0 -2.822069,1.26605 -2.822069,2.82206 0,0.19473 0.158036,0.35276 0.352759,0.35276 0.194723,0 0.352758,-0.15803 0.352758,-0.35276 0,-1.16727 0.949274,-2.11655 2.116552,-2.11655 1.059333,0 1.936644,0.78277 2.090094,1.79978 -0.986666,0.17955 -1.737336,1.0431 -1.737336,2.08057 0,0.19472 0.158036,0.35275 0.352759,0.35275 0.194722,0 0.352758,-0.15803 0.352758,-0.35275 0,-0.77819 0.632849,-1.41104 1.411034,-1.41104 0.778186,0 1.411034,0.63285 1.411034,1.41104 0,0.19472 0.158036,0.35275 0.352759,0.35275 0.194723,0 0.352758,-0.15803 0.352758,-0.35275 0,-1.05334 -0.774657,-1.92712 -1.783899,-2.08763 z"
         id="path4576" />
    </g>
    <ellipse
       cy="99.472969"
       cx="335.51779"
       id="circle4582"
       style="opacity:1;fill:#f0c419;fill-opacity:1;stroke:none;stroke-width:1.36600423;stroke-linecap:round;stroke-miterlimit:4;stroke-dasharray:none"
       rx="5.9133382"
       ry="5.9536343" />
    <g
       transform="matrix(1,0,0,1.0068145,396.82275,-0.77928028)"
       id="g4596">
      <path
         inkscape:connector-curvature="0"
         style="fill:#d0e8f9;stroke-width:0.35275853"
         d="m -47.392938,101.52475 h -0.02857 c 0.01235,0.10724 0.02081,0.21554 0.02081,0.3263 0,0.19508 -0.157683,0.35276 -0.352759,0.35276 -0.195075,0 -0.352758,-0.15768 -0.352758,-0.35276 0,-1.16728 -0.949274,-2.116551 -2.116552,-2.116551 -1.167278,0 -2.116551,0.949271 -2.116551,2.116551 0,0.19508 -0.157683,0.35276 -0.352758,0.35276 -0.195076,0 -0.352759,-0.15768 -0.352759,-0.35276 0,-1.43361 1.075561,-2.618531 2.461549,-2.796321 -0.07972,-1.777546 -1.546493,-3.200574 -3.343445,-3.200574 -1.802949,0 -3.273952,1.4322 -3.344504,3.218214 0.292437,0.0691 0.575702,0.18344 0.83886,0.34606 0.64061,0.39685 1.088613,1.019471 1.261465,1.753211 0.04445,0.18978 -0.07302,0.37957 -0.262453,0.42437 -0.189784,0.0427 -0.379568,-0.073 -0.424368,-0.26246 -0.267391,-1.13658 -1.410681,-1.843511 -2.5448,-1.575771 -1.136235,0.267391 -1.843163,1.408921 -1.575772,2.545151 0.04445,0.18944 -0.07302,0.37922 -0.262806,0.42402 -0.02681,0.006 -0.05397,0.009 -0.08078,0.009 -0.1598,0 -0.304784,-0.10971 -0.343234,-0.27197 -0.103711,-0.44131 -0.09454,-0.88261 0.0042,-1.29604 -0.725977,-0.10618 -1.459362,0.16791 -1.937703,0.74855 -0.44377,0.53937 -0.573232,1.23395 -0.414491,1.86433 3.53e-4,0.004 0.0025,0.008 0.0028,0.012 0.107944,0.41837 0.342176,0.80781 0.700226,1.10307 0.150275,0.12417 0.171793,0.34606 0.04833,0.49669 -0.06985,0.0847 -0.170735,0.1284 -0.272683,0.1284 -0.07902,0 -0.158035,-0.0261 -0.224001,-0.0804 -0.429307,-0.35346 -0.73656,-0.81522 -0.898124,-1.33378 -1.426202,-0.37181 -2.925779,0.22824 -3.700436,1.50346 -0.464583,0.76478 -0.603923,1.66502 -0.391562,2.53457 0.21236,0.8699 0.750317,1.6047 1.51545,2.06963 0.166502,0.10124 0.219416,0.31784 0.118174,0.48469 -0.06632,0.10936 -0.182729,0.16933 -0.301608,0.16933 -0.04692,0 -0.09348,-0.0127 -0.138282,-0.0321 0.557359,0.33018 1.199027,0.53231 1.885142,0.56194 l 2.895795,0.001 c 1.872089,-0.03 3.475729,-1.18527 4.159375,-2.81925 0.692465,1.6555 2.329265,2.82207 4.233103,2.82207 3.306758,0 5.996894,-2.69014 5.996894,-5.99689 v -3.52759 z"
         id="path4584" />
      <g
         id="g4588"
         transform="matrix(0.35275852,0,0,0.35275852,-68.551041,91.999563)">
        <path
           inkscape:connector-curvature="0"
           style="fill:#abcadd"
           d="M 52.936,20.068 C 52.705,13.929 47.652,9.002 41.458,9.002 c -6.142,0 -11.16,4.844 -11.47,10.91 -0.558,0.012 -1.119,0.078 -1.676,0.209 -2.336,0.55 -4.185,2.082 -5.229,4.052 -2.882,-0.585 -5.848,0.433 -7.75,2.742 -1.251,1.52 -1.879,3.408 -1.81,5.359 -4.63,-0.834 -9.34,1.224 -11.844,5.344 -1.596,2.625 -2.073,5.714 -1.345,8.698 0.728,2.984 2.575,5.506 5.2,7.102 0.162,0.099 0.342,0.146 0.519,0.146 0.338,0 0.667,-0.171 0.855,-0.48 C 7.195,52.611 7.045,51.997 6.573,51.71 4.404,50.392 2.879,48.309 2.277,45.843 1.675,43.378 2.07,40.826 3.387,38.658 c 2.196,-3.614 6.447,-5.315 10.49,-4.262 0.458,1.471 1.33,2.779 2.546,3.781 0.187,0.153 0.411,0.228 0.635,0.228 0.289,0 0.575,-0.124 0.773,-0.364 0.351,-0.427 0.289,-1.057 -0.137,-1.408 -1.016,-0.836 -1.679,-1.941 -1.985,-3.127 -10e-4,-0.012 -0.007,-0.022 -0.008,-0.034 -0.45,-1.787 -0.083,-3.756 1.175,-5.285 1.356,-1.646 3.435,-2.423 5.493,-2.122 -0.28,1.173 -0.307,2.423 -0.012,3.674 0.108,0.461 0.52,0.771 0.973,0.771 0.076,0 0.153,-0.009 0.229,-0.026 0.538,-0.127 0.871,-0.665 0.745,-1.202 -0.758,-3.221 1.246,-6.457 4.467,-7.215 3.215,-0.759 6.456,1.245 7.214,4.467 0.127,0.537 0.665,0.865 1.203,0.744 0.537,-0.127 0.87,-0.665 0.744,-1.203 -0.49,-2.08 -1.76,-3.845 -3.576,-4.97 -0.746,-0.462 -1.549,-0.785 -2.378,-0.981 0.2,-5.063 4.37,-9.123 9.481,-9.123 5.094,0 9.253,4.033 9.478,9.073 -3.929,0.504 -6.978,3.863 -6.978,7.927 0,0.553 0.447,1 1,1 0.553,0 1,-0.447 1,-1 0,-3.309 2.691,-6 6,-6 3.309,0 6.046,2.691 6.046,6 0,0.028 0,1.327 0,3 0,0.552 0.448,1 1,1 0.552,0 1,-0.448 1,-1 v -3 c -0.002,-4.079 -3.119,-7.449 -7.069,-7.933 z"
           id="path4586" />
      </g>
      <g
         id="g4592"
         transform="matrix(0.35275852,0,0,0.35275852,-68.551041,91.999563)">
        <path
           inkscape:connector-curvature="0"
           style="fill:#abcadd"
           d="m 43.003,55.002 c -4.973,0 -9.491,-2.608 -12,-6.789 -2.509,4.181 -7.027,6.789 -12,6.789 -0.552,0 -1,-0.447 -1,-1 0,-0.553 0.448,-1 1,-1 4.853,0 9.201,-2.899 11.078,-7.386 l 0.922,-2.206 0.922,2.206 c 1.876,4.486 6.225,7.386 11.078,7.386 0.552,0 1,0.447 1,1 0,0.553 -0.447,1 -1,1 z"
           id="path4590" />
      </g>
      <path
         inkscape:connector-curvature="0"
         style="fill:#abcadd;stroke-width:0.35275853"
         d="m -49.184245,106.41892 c -0.161564,-1.40362 -1.355651,-2.49823 -2.801961,-2.49823 -1.556018,0 -2.822069,1.26605 -2.822069,2.82206 0,0.19473 0.158036,0.35276 0.352759,0.35276 0.194723,0 0.352758,-0.15803 0.352758,-0.35276 0,-1.16727 0.949274,-2.11655 2.116552,-2.11655 1.059333,0 1.936644,0.78277 2.090094,1.79978 -0.986666,0.17955 -1.737336,1.0431 -1.737336,2.08057 0,0.19472 0.158036,0.35275 0.352759,0.35275 0.194722,0 0.352758,-0.15803 0.352758,-0.35275 0,-0.77819 0.632849,-1.41104 1.411034,-1.41104 0.778186,0 1.411034,0.63285 1.411034,1.41104 0,0.19472 0.158036,0.35275 0.352759,0.35275 0.194723,0 0.352758,-0.15803 0.352758,-0.35275 0,-1.05334 -0.774657,-1.92712 -1.783899,-2.08763 z"
         id="path4594" />
    </g>
  </g>
</svg>
