<?xml version="1.0" encoding="UTF-8" standalone="no"?>
<!-- Generator: Adobe Illustrator 16.0.0, SVG Export Plug-In . SVG Version: 6.00 Build 0)  -->

<svg
   xmlns:dc="http://purl.org/dc/elements/1.1/"
   xmlns:cc="http://creativecommons.org/ns#"
   xmlns:rdf="http://www.w3.org/1999/02/22-rdf-syntax-ns#"
   xmlns:svg="http://www.w3.org/2000/svg"
   xmlns="http://www.w3.org/2000/svg"
   xmlns:sodipodi="http://sodipodi.sourceforge.net/DTD/sodipodi-0.dtd"
   xmlns:inkscape="http://www.inkscape.org/namespaces/inkscape"
   version="1.1"
   id="Layer_1"
   x="0px"
   y="0px"
   width="116.75358"
   height="62.000351"
   viewBox="0 0 116.75358 62.000351"
   enable-background="new 0 0 512 512"
   xml:space="preserve"
   sodipodi:docname="vintage-eyeglasses.svg"
   inkscape:version="0.92pre1 r"><metadata
     id="metadata9"><rdf:RDF><cc:Work
         rdf:about=""><dc:format>image/svg+xml</dc:format><dc:type
           rdf:resource="http://purl.org/dc/dcmitype/StillImage" /><dc:title></dc:title></cc:Work></rdf:RDF></metadata><defs
     id="defs7" /><sodipodi:namedview
     pagecolor="#ffffff"
     bordercolor="#666666"
     borderopacity="1"
     objecttolerance="10"
     gridtolerance="10"
     guidetolerance="10"
     inkscape:pageopacity="0"
     inkscape:pageshadow="2"
     inkscape:window-width="1360"
     inkscape:window-height="688"
     id="namedview5"
     showgrid="false"
     fit-margin-top="0"
     fit-margin-left="0"
     fit-margin-right="0"
     fit-margin-bottom="0"
     inkscape:zoom="0.4609375"
     inkscape:cx="391.92192"
     inkscape:cy="129.78332"
     inkscape:window-x="0"
     inkscape:window-y="28"
     inkscape:window-maximized="1"
     inkscape:current-layer="Layer_1" /><path
     d="m 116.60357,26.26392 c -0.0837,-2.3819 -1.85836,-4.32653 -4.21229,-4.63037 L 110.53316,21.39157 86.551084,3.7185596 C 81.886822,0.27605965 75.994874,-0.85042035 70.387569,0.65479965 68.378002,1.1890096 67.179467,3.2594896 67.717468,5.2695296 c 0.538476,2.01336 2.627914,3.20739 4.614728,2.66891 3.374479,-0.89825 6.931216,-0.23511 9.74897,1.84675 L 96.476864,20.39377 c -2.96115,0.0533 -5.92561,0.25076 -8.886987,0.66054 -4.512104,0.62166 -9.034873,1.57679 -13.28959,2.80922 l -2.279279,0.4477 c -8.825598,1.73654 -17.926359,1.75882 -26.839649,0.0642 l -2.57198,-0.47709 c -4.405926,-1.26727 -8.932488,-2.2224 -13.44791,-2.84406 -2.96138,-0.40978 -5.927025,-0.60745 -8.888405,-0.66054 L 34.67018,9.7851596 c 2.816806,-2.07783 6.373305,-2.74073 9.748733,-1.84675 1.99748,0.54298 4.07483,-0.65224 4.613779,-2.66891 0.538239,-2.00981 -0.658874,-4.08052 -2.669389,-4.61472995 -5.60375,-1.50854 -11.495935,-0.37897 -16.163278,3.06375995 L 6.2134444,21.39485 4.3669374,21.63352 c -2.361757,0.30384 -4.13313296,2.25297 -4.21252996,4.63037 l -0.15192,4.20494 c -0.06423,2.02071 1.12221896,3.86319 2.77248596,4.4922 0.70509,0.36854 1.160377,0.98618 1.205408,1.65358 l 0.538476,7.9328 c 0.948021,9.57335 8.8985956,16.97502 18.4954086,17.22104 l 8.838633,0.23131 c 6.597039,0 12.637116,-3.36263 16.193852,-9.05407 l 7.131722,-12.52406 c 0.474011,-0.70841 1.781805,-0.96295 2.961143,-0.96295 0.01161,0 0.527099,-0.007 0.527099,-0.007 1.130752,0 2.464854,0.30337 2.844062,0.8608 l 7.238138,12.70158 c 3.518579,5.6239 9.558655,8.98629 16.155694,8.98629 l 8.834605,-0.23132 c 9.596576,-0.24601 17.548336,-7.64792 18.503696,-17.27815 l 0.53421,-7.87544 c 0.0453,-0.66717 0.49748,-1.28504 1.01225,-1.56992 1.83916,-0.71268 3.03011,-2.55492 2.96138,-4.57989 z m -22.609816,2.5779 c 1.34169,0 2.51795,0.0678 3.50365,0.20098 3.184636,0.42851 6.460516,2.52956 6.604856,6.25623 l 0.32185,8.11743 c 0.10974,2.77248 -0.87502,5.42244 -2.76348,7.47063 -1.889166,2.0392 -4.451186,3.22636 -7.219166,3.33301 0,0 -6.935486,0.26521 -7.321568,0.27232 -12.638774,0 -16.217789,-12.60346 -16.361177,-13.11539 -0.592276,-2.35868 -0.170881,-4.8797 1.160377,-6.91937 1.334339,-2.0482 3.472126,-3.45459 5.868959,-3.8639 6.923632,-1.17957 12.224729,-1.75194 16.205699,-1.75194 z M 29.657046,54.49218 c -0.409544,-0.007 -7.340523,-0.27232 -7.340523,-0.27232 -2.771302,-0.10641 -5.33475,-1.29357 -7.223444,-3.333 -1.887746,-2.0482 -2.873924,-4.69792 -2.764191,-7.47064 l 0.32209,-8.11743 c 0.144573,-3.7269 3.420696,-5.82796 6.605808,-6.25622 3.924094,-0.52284 10.461408,-0.0265 19.708401,1.55096 2.396596,0.40931 4.534383,1.81569 5.869907,3.85963 1.330073,2.04393 1.751468,4.56495 1.163458,6.90111 -0.147654,0.53469 -3.726432,13.13791 -16.341506,13.13791 z"
     id="path2"
     inkscape:connector-curvature="0"
     style="fill:#ffffff;stroke-width:0.23700516" /></svg>